<svg width="18" height="18" viewBox="0 0 18 18" fill="none" xmlns="http://www.w3.org/2000/svg">
<path d="M6.77418 0.53125C6.77418 0.53125 -0.10077 2.00712 0.477396 9.88024C1.05556 17.7534 10.6295 20.0495 15.0945 15.3258C15.0945 15.3258 7.35234 19.426 3.3367 13.2917C-0.678936 7.15747 3.52943 1.67884 6.77418 0.53125Z" fill="white"/>
<path d="M14.5531 1.6875C18.3345 4.39831 19.0577 10.0048 16.22 13.7004C13.4445 17.4439 7.94738 18.1583 4.41895 15.1137C7.9888 17.7804 13.2355 17.0696 15.9012 13.4494C18.6525 9.86775 17.9923 4.55463 14.5531 1.6875Z" fill="white"/>
<path d="M1.04257 11.0674C-0.157894 7.37448 1.67837 3.02596 4.96545 1.13079C6.05243 0.487108 7.27811 0.0972218 8.50469 0.0429688C7.34115 0.435613 6.26227 0.970787 5.30946 1.67516C2.37721 3.79194 0.826428 7.41862 1.04257 11.0674Z" fill="white"/>
<path d="M16.4122 7.49468C16.4798 10.4694 14.6138 13.343 11.913 14.4657C7.67941 16.3241 2.66954 13.5968 1.82661 8.96871C0.890913 4.37927 4.49229 -0.084185 9.0852 0.0132865C7.64969 0.0316773 6.22229 0.477655 5.03624 1.30708C1.26375 3.88456 0.72701 9.46894 3.96096 12.7269C8.57908 17.3761 16.3024 14.0979 16.4122 7.49468Z" fill="white"/>
<path d="M17.0053 6.14584C17.8735 8.92654 17.1278 12.156 15.1654 14.2847C9.5648 20.2994 -0.17936 15.6263 0.761735 7.38998C1.15438 4.04745 3.66157 1.11319 6.8667 0.324219C3.76153 1.27227 1.40834 4.13848 1.07423 7.4286C0.569914 12.0741 3.95065 16.2479 8.51924 16.5918C14.1082 16.9955 18.3796 11.6723 17.0053 6.14584Z" fill="white"/>
<path d="M17.9873 8.2737C18.1575 11.1942 16.6328 14.076 14.2058 15.6135C12.1012 16.979 9.38864 17.2769 7.03995 16.4282C2.00577 14.6185 -0.12678 8.50359 2.70821 3.87369C4.21397 1.39553 7.03635 -0.162178 9.89746 0.0134548C7.14352 0.152306 4.56969 1.72472 3.20713 4.1799C0.572963 8.87876 3.19092 14.8926 8.39261 15.9942C13.2368 17.0259 17.7495 13.2843 17.9873 8.2737Z" fill="white"/>
<path d="M16.3356 4.52369C17.727 7.38163 17.2335 10.9798 15.1298 13.3421C10.4072 18.658 1.79231 15.5352 1.40867 8.36921C1.26188 5.59863 2.63254 2.82805 4.91279 1.32092C5.23429 1.10483 5.572 0.918162 5.91782 0.748047C5.23069 1.09471 4.58858 1.53518 4.02663 2.06851C1.42938 4.49886 0.764762 8.54393 2.45693 11.6998C4.96772 16.4897 11.4761 17.2925 15.0379 13.2575C17.1326 10.954 17.6631 7.36048 16.3356 4.52369Z" fill="white"/>
<path d="M14.5531 1.6875C17.2161 3.71693 18.4391 7.35372 17.5592 10.6282C15.5897 17.9754 5.96979 19.2462 2.23333 12.654C0.789713 10.105 0.782509 6.80935 2.22972 4.26314C2.43235 3.90084 2.6638 3.55785 2.91056 3.22681C2.42245 3.89256 2.02169 4.62452 1.74072 5.40521C0.424983 8.98867 1.69659 13.1349 4.78824 15.2995C9.42257 18.6052 15.9679 16.1685 17.4403 10.596C18.3373 7.37947 17.1504 3.72705 14.5531 1.6875Z" fill="white"/>
<path d="M17.8152 8.92707C17.9683 14.5418 12.7314 18.9528 7.35235 17.8227C-0.396157 16.219 -2.40082 5.92292 4.19135 1.44843C5.64126 0.485671 7.36946 -0.0265145 9.08504 0.0139454C8.2295 0.0369339 7.37756 0.173946 6.56255 0.438774C1.88409 1.95694 -0.65462 7.15879 1.01143 11.877C1.99756 14.7257 4.50565 16.9409 7.41178 17.5174C12.7468 18.6172 17.7188 14.4701 17.8152 8.92707Z" fill="white"/>
<path d="M16.0457 4.29521C17.5478 7.10901 17.1903 10.7449 15.1694 13.1982C12.0679 17.1035 6.01603 17.0888 2.94959 13.1458C0.400975 9.99269 0.653134 5.17521 3.53586 2.33382C4.08791 1.77934 4.72281 1.31589 5.40544 0.945312C4.72641 1.32141 4.09601 1.79037 3.54937 2.34853C0.712572 5.19912 0.455009 9.97154 3.00182 13.1026C6.05025 16.9895 12.0435 17.0272 15.128 13.1642C17.139 10.7412 17.5145 7.09429 16.0457 4.29521Z" fill="white"/>
<path d="M14.7341 12.8731C14.9723 12.8731 15.1655 12.6759 15.1655 12.4326C15.1655 12.1894 14.9723 11.9922 14.7341 11.9922C14.4959 11.9922 14.3027 12.1894 14.3027 12.4326C14.3027 12.6759 14.4959 12.8731 14.7341 12.8731Z" fill="white"/>
<path d="M0.431373 4.6485C0.669614 4.6485 0.862746 4.4513 0.862746 4.20804C0.862746 3.96478 0.669614 3.76758 0.431373 3.76758C0.193132 3.76758 0 3.96478 0 4.20804C0 4.4513 0.193132 4.6485 0.431373 4.6485Z" fill="white"/>
<path d="M6.16004 17.9073C6.41967 17.9073 6.63014 17.6924 6.63014 17.4273C6.63014 17.1622 6.41967 16.9473 6.16004 16.9473C5.90041 16.9473 5.68994 17.1622 5.68994 17.4273C5.68994 17.6924 5.90041 17.9073 6.16004 17.9073Z" fill="white"/>
<path d="M13.6004 4.5878C13.3906 4.5878 13.2213 4.76068 13.2213 4.97493C13.2213 4.98781 13.2222 5.0016 13.2231 5.01355C13.151 5.14597 13.0925 5.28482 13.0484 5.42827C13.2456 5.39424 13.4563 5.36758 13.6815 5.35194C13.8508 5.31516 13.9778 5.15976 13.9778 4.97493C13.9778 4.76068 13.8084 4.5878 13.6004 4.5878ZM13.2636 4.197C13.2636 3.98275 13.0943 3.80987 12.8845 3.80987C12.6755 3.80987 12.5062 3.98275 12.5062 4.197C12.5062 4.24849 12.5161 4.29815 12.5341 4.34321C12.3153 4.90413 12.0082 5.42735 11.6201 5.88988C11.8578 5.77309 12.137 5.65815 12.4648 5.56344C12.6629 5.24987 12.8304 4.91792 12.9691 4.57401C13.1375 4.53447 13.2636 4.38091 13.2636 4.197ZM12.073 3.23976C12.073 3.02642 11.9037 2.85355 11.6939 2.85355C11.485 2.85355 11.3157 3.02642 11.3157 3.23976C11.3157 3.28297 11.3229 3.32435 11.3355 3.36297C11.2959 3.41999 11.249 3.47148 11.195 3.51746C11.0977 3.5993 10.9861 3.65631 10.8663 3.68389C10.9059 3.53677 10.9383 3.38688 10.9689 3.23608C11.1013 3.17631 11.1941 3.04021 11.1941 2.88297C11.1941 2.66964 11.0248 2.49677 10.815 2.49677C10.606 2.49677 10.4367 2.66964 10.4367 2.88297C10.4367 2.96297 10.4601 3.03562 10.5007 3.09723C10.353 3.86964 10.0711 4.60436 9.66312 5.27654V2.96481C9.74237 2.89401 9.7928 2.7901 9.7928 2.67424C9.7928 2.45998 9.6235 2.28711 9.41366 2.28711C9.20473 2.28711 9.03543 2.45998 9.03543 2.67424C9.03543 2.79562 9.09036 2.90412 9.17591 2.97493V6.25126C8.73373 5.94137 8.26544 5.68482 7.77643 5.48436C7.77463 5.28666 7.74671 5.09447 7.69538 4.90964C8.31857 4.5216 8.68871 3.81539 8.66709 3.07608C8.71392 3.01171 8.74184 2.93263 8.74184 2.84619C8.74184 2.63194 8.57253 2.45906 8.3636 2.45906C8.15377 2.45906 7.98446 2.63194 7.98446 2.84619C7.98446 2.99332 8.06461 3.12022 8.18169 3.1855C8.16728 3.68665 7.91782 4.15654 7.50986 4.4416C7.36127 4.16206 7.15504 3.91838 6.90738 3.72527C6.89837 3.5193 6.73357 3.35562 6.53004 3.35562C6.32021 3.35562 6.1509 3.52849 6.1509 3.74275C6.1509 3.95608 6.32021 4.12895 6.53004 4.12895C6.55886 4.12895 6.58588 4.12619 6.61199 4.11976C6.97492 4.40114 7.22168 4.82597 7.27751 5.30137C6.74438 5.1285 6.19053 5.01907 5.62137 4.97401C5.55472 4.86183 5.43495 4.78551 5.29716 4.78551C5.08733 4.78551 4.91802 4.95838 4.91802 5.17171C4.91802 5.38597 5.08733 5.55884 5.29716 5.55884C5.38992 5.55884 5.47547 5.5239 5.54121 5.46689C5.6736 5.47608 5.80508 5.48896 5.93476 5.50551C5.71773 5.75746 5.43045 5.9285 5.11795 6.00114C5.0486 5.91746 4.94504 5.86413 4.82886 5.86413C4.61903 5.86413 4.44972 6.037 4.44972 6.25034C4.44972 6.46367 4.61903 6.63747 4.82886 6.63747C4.94054 6.63747 5.0405 6.58689 5.10984 6.50873C5.65559 6.41494 6.1572 6.09585 6.47421 5.59838C7.16764 5.74735 7.83046 6.00666 8.44645 6.36896C8.17448 6.43884 7.8926 6.47563 7.60622 6.47563V6.97218C8.07992 6.97218 8.54101 6.88666 8.98049 6.71838C9.04623 6.7662 9.11107 6.81402 9.17501 6.86367V8.13908C9.41006 7.84758 9.64061 7.55057 9.89187 7.26275C9.81622 7.30137 9.73967 7.33816 9.66132 7.37218V6.14827C10.1134 5.55057 10.4637 4.89493 10.7069 4.20068C10.9987 4.197 11.2778 4.09309 11.5057 3.89999C11.6011 3.81815 11.684 3.72435 11.7506 3.62229C11.9344 3.59194 12.073 3.43286 12.073 3.23976ZM11.1094 5.30137C11.1094 5.10459 10.9545 4.94643 10.7618 4.94643C10.5691 4.94643 10.4142 5.10459 10.4142 5.30137C10.4142 5.38781 10.4439 5.46689 10.4943 5.5285C10.5034 5.86689 10.5538 6.19976 10.6438 6.5216C10.7753 6.4131 10.9158 6.30735 11.0671 6.20804C11.0203 6.00114 10.9924 5.79057 10.9825 5.57631C11.0599 5.51103 11.1094 5.41171 11.1094 5.30137ZM7.97906 7.48344C7.78634 7.48344 7.63054 7.64161 7.63054 7.83839C7.63054 8.03517 7.78634 8.19333 7.97906 8.19333C8.03309 8.19333 8.08442 8.18046 8.13035 8.15747C8.369 8.27425 8.59325 8.4177 8.79858 8.58781C8.90754 8.46368 9.01291 8.33862 9.11648 8.2108C8.86432 8.00115 8.58784 7.82643 8.29246 7.68758C8.23752 7.56712 8.11774 7.48344 7.97906 7.48344ZM7.06228 8.48483C7.18025 8.39747 7.27661 8.28161 7.34506 8.1446C7.45493 7.91931 7.47384 7.66459 7.39549 7.42643L6.9344 7.58184C6.97042 7.69494 6.96141 7.8154 6.90918 7.92207C6.87676 7.98827 6.82903 8.04437 6.77229 8.08574C6.48321 7.56161 6.43098 6.90873 6.69124 6.31838L6.24726 6.11516C5.84921 7.02367 6.03743 8.04988 6.64441 8.75241C6.06535 8.57586 5.53221 8.24574 5.10714 7.7823C5.10804 7.77218 5.10894 7.76207 5.10894 7.75195C5.10894 7.75103 5.10894 7.75103 5.10894 7.75103C5.10894 7.56712 4.98286 7.41356 4.81446 7.37494C4.78744 7.36942 4.75952 7.36574 4.7307 7.36574C4.7199 7.36574 4.70909 7.36666 4.69828 7.36758C4.50466 7.38413 4.35156 7.54965 4.35156 7.75195C4.35156 7.9662 4.52177 8.13908 4.7307 8.13908C4.7325 8.13908 4.73611 8.13908 4.73791 8.13816C4.74691 8.13816 4.75682 8.13724 4.76492 8.13632C5.23142 8.64391 5.82219 9.02 6.49312 9.22598C6.86956 9.34184 7.2541 9.39977 7.63594 9.39977C7.74131 9.39977 7.84757 9.39517 7.95294 9.38598C8.21771 9.18736 8.44825 8.96943 8.66169 8.73954C8.32398 8.84713 7.97726 8.90046 7.63414 8.90046C7.4126 8.79563 7.22168 8.6531 7.06228 8.48483Z" fill="white"/>
<path d="M13.4327 7.8695C13.7119 7.8695 13.9892 7.82168 14.2531 7.72973C14.3116 7.76743 14.381 7.79042 14.4557 7.79042C14.6647 7.79042 14.834 7.61754 14.834 7.40421C14.834 7.18996 14.6647 7.01708 14.4557 7.01708C14.2981 7.01708 14.163 7.11547 14.1054 7.25616C13.9064 7.32697 13.6974 7.36743 13.4849 7.37294C13.6578 7.15134 13.8163 6.91685 13.9586 6.67041C13.9847 6.62536 14.0099 6.57846 14.0352 6.53156C14.0433 6.53064 14.0514 6.52972 14.0595 6.5288C14.2378 6.49662 14.3729 6.33846 14.3729 6.14811C14.3729 5.93478 14.2027 5.76191 13.9937 5.76191C13.9505 5.76191 13.9073 5.77018 13.8676 5.7849C13.8487 5.79133 13.8289 5.79961 13.8109 5.81064C13.6947 5.87593 13.6146 6.00283 13.6146 6.14903C13.6146 6.17018 13.6164 6.19133 13.62 6.21156C13.6218 6.22352 13.6254 6.23639 13.6281 6.24834C13.5795 6.3403 13.529 6.43133 13.475 6.52053C13.3876 6.13432 13.4291 5.72513 13.5948 5.36466H13.6002C13.6281 5.36466 13.6551 5.36191 13.6812 5.35547C13.457 5.3711 13.2463 5.39777 13.0481 5.43179C12.8869 5.95133 12.9121 6.52053 13.1301 7.0272C12.7104 7.578 12.189 8.05065 11.5847 8.41387C11.347 8.44053 11.1137 8.48283 10.8823 8.54076C10.9219 8.48099 10.9705 8.42674 11.0264 8.37984C11.1885 8.24191 11.3938 8.17662 11.6036 8.19685L11.6477 7.70306C11.3091 7.67088 10.9768 7.7757 10.7148 7.99915C10.4914 8.18858 10.3419 8.44329 10.2834 8.72835C10.0708 8.80835 9.86282 8.90122 9.66109 9.00697V7.9118C10.2762 7.66444 10.8444 7.31501 11.3479 6.87179C11.4983 6.7403 11.6396 6.60145 11.7747 6.45708C11.9873 6.50857 12.2025 6.53524 12.4213 6.53524C12.4844 6.53524 12.5483 6.5334 12.6132 6.5288L12.5798 6.03317C12.4339 6.04329 12.288 6.03961 12.1449 6.02122C12.2583 5.87409 12.3646 5.72237 12.4628 5.56512C12.135 5.65892 11.8558 5.77478 11.618 5.89156C11.464 6.07639 11.2974 6.25202 11.1173 6.41662C11.0975 6.34765 11.0795 6.27961 11.0642 6.20972C10.9138 6.30903 10.7724 6.41386 10.6409 6.52329C10.6634 6.60053 10.6868 6.67777 10.713 6.75317C10.4536 6.94904 10.1789 7.12007 9.88983 7.26444C9.63857 7.55226 9.40803 7.84927 9.17298 8.14076V8.26214C9.15407 8.24559 9.13425 8.22904 9.11444 8.21341C9.01088 8.3403 8.90551 8.46628 8.79654 8.59042C8.82626 8.61341 8.85418 8.63824 8.88209 8.66306C8.80735 8.69249 8.7326 8.71916 8.65785 8.74306C8.44442 8.97203 8.21387 9.19088 7.9491 9.3895C8.36697 9.35548 8.77943 9.25065 9.17298 9.0787V10.3615H7.24936V11.9679C6.97919 12.0654 6.78467 12.3274 6.78467 12.6355C6.78467 13.0263 7.09537 13.3435 7.47901 13.3435C7.86175 13.3435 8.17245 13.0263 8.17245 12.6355C8.17245 12.3376 7.99053 12.0819 7.73567 11.978V10.8571H9.17658V12.4663C8.90911 12.5647 8.71729 12.8258 8.71729 13.133C8.71729 13.5238 9.02799 13.841 9.41073 13.841C9.79437 13.841 10.1051 13.5238 10.1051 13.133C10.1051 12.8332 9.92135 12.5776 9.66379 12.4736V10.8571H11.1047V11.978C10.8489 12.0828 10.667 12.3376 10.667 12.6355C10.667 13.0263 10.9777 13.3435 11.3614 13.3435C11.7441 13.3435 12.0548 13.0263 12.0548 12.6355C12.0548 12.3274 11.8603 12.0645 11.591 11.9679V10.3615H9.66289V9.57341C10.9687 8.80099 12.5357 8.68053 13.9217 9.18444C13.9676 9.34536 14.1126 9.46215 14.2837 9.46215C14.4935 9.46215 14.6629 9.28927 14.6629 9.07502C14.6629 8.86168 14.4935 8.68881 14.2837 8.68881C14.2261 8.68881 14.1711 8.70168 14.1225 8.72559C13.6011 8.52973 13.0517 8.41387 12.4871 8.38628C12.696 8.21892 12.8923 8.03777 13.0778 7.84559C13.1949 7.8603 13.3138 7.8695 13.4327 7.8695ZM7.92029 12.6336C7.92029 12.8828 7.72216 13.0851 7.47811 13.0851C7.23405 13.0851 7.03593 12.8819 7.03593 12.6336C7.03593 12.3845 7.23405 12.1822 7.47811 12.1822C7.72216 12.1822 7.92029 12.3854 7.92029 12.6336ZM9.85201 13.132C9.85201 13.3812 9.65388 13.5835 9.40983 13.5835C9.16577 13.5835 8.96765 13.3803 8.96765 13.132C8.96765 12.904 9.13335 12.7164 9.34769 12.6851H9.47107C9.6863 12.7155 9.85201 12.904 9.85201 13.132ZM11.8017 12.6336C11.8017 12.8828 11.6036 13.0851 11.3596 13.0851C11.1155 13.0851 10.9174 12.8819 10.9174 12.6336C10.9174 12.3845 11.1155 12.1822 11.3596 12.1822C11.6036 12.1822 11.8017 12.3854 11.8017 12.6336Z" fill="white"/>
</svg>
