<svg width="25" height="26" viewBox="0 0 25 26" fill="none" xmlns="http://www.w3.org/2000/svg">
<path d="M23.0791 17.1776L24.0039 17.558C24.1626 17.1723 24.0652 16.7287 23.7596 16.4449C23.454 16.1611 23.0044 16.0967 22.6315 16.2834L23.0791 17.1776ZM10.6141 1.96094L11.421 2.55152C11.6666 2.21594 11.6789 1.76341 11.4519 1.41501C11.2249 1.06661 10.8059 0.895059 10.3998 0.984169L10.6141 1.96094ZM18.6583 17.2201C13.6923 17.2201 9.6386 13.1231 9.6386 8.03452L7.6386 8.03452C7.6386 14.1966 12.5569 19.2201 18.6583 19.22L18.6583 17.2201ZM22.6315 16.2834C21.4335 16.8831 20.0858 17.2201 18.6583 17.2201L18.6583 19.22C20.4044 19.22 22.0579 18.8071 23.5267 18.0718L22.6315 16.2834ZM22.1543 16.7972C20.6428 20.4722 17.0803 23.0386 12.942 23.0386L12.942 25.0386C17.934 25.0386 22.2007 21.9422 24.0039 17.558L22.1543 16.7972ZM12.942 23.0386C7.44405 23.0386 2.95921 18.5034 2.95921 12.8741L0.959213 12.8741C0.959214 19.5769 6.30866 25.0386 12.942 25.0386L12.942 23.0386ZM2.95921 12.8741C2.95921 7.98883 6.34067 3.92225 10.8284 2.93771L10.3998 0.984169C4.99251 2.17046 0.959212 7.05143 0.959213 12.8741L2.95921 12.8741ZM9.6386 8.03452C9.6386 5.97665 10.3019 4.08073 11.421 2.55152L9.80708 1.37036C8.4441 3.23278 7.6386 5.54026 7.6386 8.03452L9.6386 8.03452Z" fill="#EEF1F8"/>
</svg>
