<svg width="20" height="20" viewBox="0 0 20 20" fill="none" xmlns="http://www.w3.org/2000/svg">
<path opacity="0.4" d="M8.95742 2.0416C9.54076 1.54993 10.4824 1.54993 11.0491 2.0416L12.3658 3.1666C12.6158 3.37493 13.0908 3.54993 13.4241 3.54993H14.8408C15.7241 3.54993 16.4491 4.27493 16.4491 5.15827V6.57493C16.4491 6.90827 16.6241 7.37493 16.8324 7.62493L17.9574 8.9416C18.4491 9.52493 18.4491 10.4666 17.9574 11.0333L16.8324 12.3499C16.6241 12.5999 16.4491 13.0666 16.4491 13.3999V14.8166C16.4491 15.6999 15.7241 16.4249 14.8408 16.4249H13.4241C13.0908 16.4249 12.6241 16.5999 12.3741 16.8083L11.0574 17.9333C10.4741 18.4249 9.53242 18.4249 8.96576 17.9333L7.64909 16.8083C7.39909 16.5999 6.92409 16.4249 6.59909 16.4249H5.14076C4.25742 16.4249 3.53242 15.6999 3.53242 14.8166V13.3916C3.53242 13.0666 3.36576 12.5916 3.15742 12.3499L2.03242 11.0249C1.54909 10.4499 1.54909 9.5166 2.03242 8.9416L3.15742 7.6166C3.36576 7.3666 3.53242 6.89993 3.53242 6.57493V5.1666C3.53242 4.28327 4.25742 3.55827 5.14076 3.55827H6.58242C6.91576 3.55827 7.38242 3.38327 7.63242 3.17493L8.95742 2.0416Z" fill="#E56060"/>
<path d="M10.0013 14.0583C9.54297 14.0583 9.16797 13.6833 9.16797 13.2249C9.16797 12.7666 9.53464 12.3916 10.0013 12.3916C10.4596 12.3916 10.8346 12.7666 10.8346 13.2249C10.8346 13.6833 10.468 14.0583 10.0013 14.0583Z" fill="#E56060"/>
<path d="M10 11.4337C9.65833 11.4337 9.375 11.1504 9.375 10.8087V6.77539C9.375 6.43372 9.65833 6.15039 10 6.15039C10.3417 6.15039 10.625 6.43372 10.625 6.77539V10.8004C10.625 11.1504 10.35 11.4337 10 11.4337Z" fill="#E56060"/>
</svg>
