<svg width="50" height="50" viewBox="0 0 50 50" fill="none" xmlns="http://www.w3.org/2000/svg">
<g opacity="0.4">
<path d="M45.875 35.0432L39.3542 19.7932C38.1667 17.0015 36.3959 15.4182 34.375 15.314C32.375 15.2099 30.4375 16.6057 28.9584 19.2724L25 26.3765C24.1667 27.8765 22.9792 28.7724 21.6875 28.8765C20.375 29.0015 19.0625 28.314 18 26.9599L17.5417 26.3765C16.0625 24.5224 14.2292 23.6265 12.3542 23.814C10.4792 24.0015 8.87504 25.2932 7.81254 27.3974L4.20838 34.5849C2.91671 37.189 3.04171 40.2099 4.56254 42.6682C6.08338 45.1265 8.72921 46.6057 11.625 46.6057H38.2084C41 46.6057 43.6042 45.2099 45.1459 42.8765C46.7292 40.5432 46.9792 37.6057 45.875 35.0432Z" fill="#464754"/>
<path d="M14.5209 17.4583C18.4099 17.4583 21.5626 14.3057 21.5626 10.4167C21.5626 6.52766 18.4099 3.375 14.5209 3.375C10.6319 3.375 7.47925 6.52766 7.47925 10.4167C7.47925 14.3057 10.6319 17.4583 14.5209 17.4583Z" fill="#464754"/>
</g>
</svg>
