<svg width="188" height="39" viewBox="0 0 188 39" fill="none" xmlns="http://www.w3.org/2000/svg">
<path d="M14.687 1.125C14.687 1.125 -0.218715 4.25882 1.03481 20.9764C2.28834 37.6941 23.0458 42.5695 32.7264 32.5394C32.7264 32.5394 15.9405 41.2457 7.23412 28.2204C-1.47224 15.195 7.65196 3.56177 14.687 1.125Z" fill="#6BA43A"/>
<path d="M31.553 3.58203C39.7517 9.33811 41.3195 21.2427 35.1671 29.09C29.1494 37.0387 17.2311 38.5559 9.58105 32.091C17.3209 37.7534 28.6964 36.2441 34.4759 28.5569C40.4409 20.9518 39.0097 9.67004 31.553 3.58203Z" fill="#C89211"/>
<path d="M2.26146 23.4988C-0.341272 15.6574 3.63995 6.42387 10.7667 2.39969C13.1234 1.03292 15.7808 0.205043 18.4402 0.0898438C15.9175 0.923577 13.5784 2.05995 11.5126 3.5556C5.15512 8.05034 1.79285 15.7511 2.26146 23.4988Z" fill="#4A8B2C"/>
<path d="M35.5828 15.9146C35.7292 22.231 31.6836 28.3327 25.8279 30.7167C16.649 34.6628 5.78706 28.8716 3.95949 19.0445C1.9308 9.29936 9.739 -0.178249 19.6969 0.0287195C16.5846 0.0677703 13.4898 1.01475 10.9183 2.77594C2.73915 8.2489 1.57544 20.1067 8.587 27.0245C18.5996 36.8965 35.3446 29.9357 35.5828 15.9146Z" fill="#6BA43A"/>
<path d="M36.8692 13.051C38.7515 18.9554 37.1348 25.8127 32.8802 30.3329C20.7374 43.1044 -0.389069 33.1816 1.65133 15.6927C2.50264 8.59528 7.9385 2.36473 14.8876 0.689453C8.15523 2.70252 3.05325 8.78858 2.32886 15.7748C1.23544 25.639 8.56526 34.5015 18.4705 35.2318C30.5879 36.0889 39.8488 24.7857 36.8692 13.051Z" fill="#4A8B2C"/>
<path d="M38.9982 17.5682C39.3673 23.7695 36.0616 29.8887 30.7995 33.1534C26.2365 36.0529 20.3554 36.6855 15.2632 34.8833C4.34852 31.0407 -0.275087 18.0563 5.8715 8.22532C9.13614 2.96323 15.2554 -0.344365 21.4586 0.0285696C15.4877 0.323403 9.90739 3.66224 6.9532 8.87551C1.24203 18.853 6.91806 31.6226 18.1959 33.9617C28.6986 36.1525 38.4828 28.2076 38.9982 17.5682Z" fill="#00783F"/>
<path d="M35.4168 9.60501C38.4335 15.6735 37.3635 23.3138 32.8024 28.3298C22.5633 39.6175 3.8853 32.9866 3.05352 17.7705C2.73525 11.8875 5.70701 6.00453 10.6508 2.80432C11.3479 2.34547 12.0801 1.94911 12.8299 1.58789C11.3401 2.324 9.94792 3.25926 8.72954 4.39173C3.09842 9.55229 1.65745 18.1415 5.32627 24.8426C10.7699 35.0134 24.8809 36.7179 32.6032 28.1502C37.1448 23.2591 38.2949 15.6286 35.4168 9.60501Z" fill="#6BA43A"/>
<path d="M31.5533 3.58203C37.3269 7.89128 39.9785 15.6136 38.0708 22.5665C33.8006 38.1673 12.9436 40.8657 4.84256 26.868C1.71264 21.4556 1.69702 14.4577 4.83475 9.05109C5.27407 8.28179 5.77587 7.55349 6.31087 6.85058C5.25259 8.26421 4.38371 9.81843 3.77452 11.4761C0.921867 19.0852 3.67885 27.8892 10.3819 32.4854C20.4297 39.5048 34.6207 34.3306 37.8131 22.4982C39.7578 15.6682 37.1844 7.91276 31.5533 3.58203Z" fill="#4A8B2C"/>
<path d="M38.6251 18.9541C38.9571 30.8763 27.6031 40.2426 15.9406 37.8429C-0.85907 34.4377 -5.20542 12.5752 9.08715 3.07412C12.2307 1.02982 15.9777 -0.0577462 19.6972 0.0281655C17.8423 0.0769789 15.9952 0.367907 14.2282 0.930238C4.08475 4.15388 -1.41945 15.1994 2.19275 25.2178C4.33077 31.2668 9.76859 35.9705 16.0694 37.1947C27.6363 39.5299 38.4162 30.724 38.6251 18.9541Z" fill="#C89211"/>
<path d="M34.7883 9.11895C38.0452 15.0937 37.27 22.814 32.8885 28.0234C26.164 36.3158 13.0429 36.2846 6.39453 27.9121C0.868853 21.2169 1.41556 10.9875 7.66563 4.95419C8.86254 3.77681 10.2391 2.79273 11.7191 2.00586C10.2469 2.80445 8.88011 3.80024 7.69492 4.98543C1.54443 11.0383 0.986005 21.172 6.50778 27.8204C13.1171 36.0737 26.1112 36.1538 32.7987 27.9512C37.1587 22.8062 37.9729 15.0625 34.7883 9.11895Z" fill="#C89211"/>
<path d="M31.945 27.3354C32.4616 27.3354 32.8803 26.9166 32.8803 26.4001C32.8803 25.8836 32.4616 25.4648 31.945 25.4648C31.4285 25.4648 31.0098 25.8836 31.0098 26.4001C31.0098 26.9166 31.4285 27.3354 31.945 27.3354Z" fill="#6BA43A"/>
<path d="M0.935265 9.87053C1.4518 9.87053 1.87053 9.4518 1.87053 8.93527C1.87053 8.41873 1.4518 8 0.935265 8C0.418732 8 0 8.41873 0 8.93527C0 9.4518 0.418732 9.87053 0.935265 9.87053Z" fill="#C89211"/>
<path d="M13.3552 38.0228C13.9181 38.0228 14.3744 37.5665 14.3744 37.0036C14.3744 36.4407 13.9181 35.9844 13.3552 35.9844C12.7923 35.9844 12.3359 36.4407 12.3359 37.0036C12.3359 37.5665 12.7923 38.0228 13.3552 38.0228Z" fill="#00783F"/>
<path d="M29.4871 9.74267C29.0322 9.74267 28.6651 10.1097 28.6651 10.5647C28.6651 10.592 28.6671 10.6213 28.669 10.6467C28.5128 10.9279 28.3859 11.2227 28.2902 11.5273C28.7178 11.455 29.1747 11.3984 29.6628 11.3652C30.0299 11.2871 30.3052 10.9571 30.3052 10.5647C30.3052 10.1097 29.9382 9.74267 29.4871 9.74267ZM28.7569 8.91284C28.7569 8.4579 28.3898 8.09082 27.9349 8.09082C27.4819 8.09082 27.1148 8.4579 27.1148 8.91284C27.1148 9.02218 27.1363 9.12762 27.1753 9.22329C26.7009 10.4143 26.035 11.5253 25.1935 12.5075C25.709 12.2595 26.3143 12.0154 27.025 11.8143C27.4545 11.1485 27.8177 10.4436 28.1184 9.71338C28.4835 9.62942 28.7569 9.30335 28.7569 8.91284ZM26.1756 6.88025C26.1756 6.42726 25.8085 6.06018 25.3536 6.06018C24.9006 6.06018 24.5335 6.42726 24.5335 6.88025C24.5335 6.97202 24.5492 7.05988 24.5765 7.14189C24.4906 7.26295 24.389 7.37229 24.2719 7.46992C24.061 7.64369 23.8189 7.76475 23.5592 7.82333C23.6451 7.51092 23.7154 7.19266 23.7818 6.87244C24.0688 6.74553 24.2699 6.45655 24.2699 6.12267C24.2699 5.66968 23.9029 5.3026 23.4479 5.3026C22.9949 5.3026 22.6279 5.66968 22.6279 6.12267C22.6279 6.29254 22.6786 6.44679 22.7665 6.57761C22.4463 8.21774 21.8351 9.77781 20.9506 11.2051V6.29644C21.1225 6.1461 21.2318 5.92546 21.2318 5.67944C21.2318 5.2245 20.8647 4.85742 20.4098 4.85742C19.9568 4.85742 19.5897 5.2245 19.5897 5.67944C19.5897 5.93717 19.7088 6.16757 19.8943 6.31792V13.2748C18.9356 12.6168 17.9203 12.072 16.8601 11.6464C16.8562 11.2266 16.7956 10.8185 16.6843 10.4261C18.0355 9.60209 18.838 8.10254 18.7911 6.5327C18.8927 6.39602 18.9532 6.2281 18.9532 6.04456C18.9532 5.58962 18.5861 5.22255 18.1331 5.22255C17.6782 5.22255 17.3111 5.58962 17.3111 6.04456C17.3111 6.35697 17.4849 6.62642 17.7387 6.76505C17.7075 7.82918 17.1666 8.82693 16.2821 9.43222C15.9599 8.83864 15.5128 8.32122 14.9759 7.91119C14.9563 7.47382 14.599 7.12627 14.1578 7.12627C13.7028 7.12627 13.3357 7.49335 13.3357 7.94829C13.3357 8.40128 13.7028 8.76835 14.1578 8.76835C14.2202 8.76835 14.2788 8.7625 14.3354 8.74883C15.1223 9.3463 15.6573 10.2484 15.7784 11.2578C14.6225 10.8908 13.4216 10.6584 12.1876 10.5627C12.0432 10.3245 11.7835 10.1625 11.4847 10.1625C11.0298 10.1625 10.6627 10.5295 10.6627 10.9825C10.6627 11.4375 11.0298 11.8045 11.4847 11.8045C11.6858 11.8045 11.8713 11.7304 12.0139 11.6093C12.3009 11.6288 12.586 11.6562 12.8671 11.6913C12.3966 12.2263 11.7737 12.5895 11.0962 12.7437C10.9458 12.566 10.7213 12.4528 10.4694 12.4528C10.0145 12.4528 9.6474 12.8199 9.6474 13.2729C9.6474 13.7258 10.0145 14.0949 10.4694 14.0949C10.7115 14.0949 10.9283 13.9875 11.0786 13.8215C12.2618 13.6224 13.3494 12.9448 14.0367 11.8885C15.5402 12.2048 16.9772 12.7554 18.3128 13.5247C17.7231 13.6731 17.1119 13.7512 16.491 13.7512V14.8056C17.5181 14.8056 18.5178 14.624 19.4706 14.2667C19.6131 14.3682 19.7537 14.4698 19.8924 14.5752V17.2834C20.402 16.6644 20.9018 16.0337 21.4466 15.4226C21.2826 15.5046 21.1166 15.5827 20.9467 15.655V13.0561C21.9269 11.787 22.6864 10.3948 23.2136 8.92065C23.8462 8.91284 24.4515 8.6922 24.9455 8.28217C25.1525 8.1084 25.3321 7.90924 25.4766 7.69251C25.8749 7.62807 26.1756 7.29028 26.1756 6.88025ZM24.0864 11.2578C24.0864 10.84 23.7506 10.5042 23.3327 10.5042C22.9149 10.5042 22.579 10.84 22.579 11.2578C22.579 11.4414 22.6435 11.6093 22.7528 11.7401C22.7723 12.4586 22.8817 13.1655 23.0769 13.8489C23.362 13.6185 23.6666 13.3939 23.9946 13.183C23.8931 12.7437 23.8326 12.2966 23.8111 11.8416C23.979 11.703 24.0864 11.4921 24.0864 11.2578ZM17.2994 15.8912C16.8815 15.8912 16.5438 16.227 16.5438 16.6449C16.5438 17.0627 16.8815 17.3986 17.2994 17.3986C17.4165 17.3986 17.5278 17.3712 17.6274 17.3224C18.1448 17.5704 18.631 17.875 19.0762 18.2362C19.3125 17.9726 19.5409 17.7071 19.7654 17.4357C19.2187 16.9905 18.6193 16.6195 17.9789 16.3247C17.8598 16.0689 17.6001 15.8912 17.2994 15.8912ZM15.3117 18.0175C15.5675 17.832 15.7764 17.586 15.9248 17.2951C16.163 16.8167 16.204 16.2759 16.0341 15.7701L15.0344 16.1001C15.1125 16.3403 15.093 16.5961 14.9798 16.8226C14.9095 16.9632 14.806 17.0823 14.683 17.1701C14.0562 16.0572 13.943 14.6709 14.5073 13.4173L13.5447 12.9858C12.6816 14.9149 13.0897 17.094 14.4057 18.5857C13.1502 18.2108 11.9943 17.5099 11.0727 16.5258C11.0747 16.5043 11.0767 16.4828 11.0767 16.4613C11.0767 16.4594 11.0767 16.4594 11.0767 16.4594C11.0767 16.0689 10.8033 15.7428 10.4382 15.6608C10.3796 15.6491 10.3191 15.6413 10.2566 15.6413C10.2332 15.6413 10.2097 15.6432 10.1863 15.6452C9.7665 15.6803 9.43457 16.0318 9.43457 16.4613C9.43457 16.9163 9.8036 17.2834 10.2566 17.2834C10.2605 17.2834 10.2683 17.2834 10.2722 17.2814C10.2917 17.2814 10.3132 17.2795 10.3308 17.2775C11.3422 18.3553 12.6231 19.1539 14.0777 19.5913C14.8939 19.8373 15.7276 19.9603 16.5555 19.9603C16.7839 19.9603 17.0143 19.9505 17.2428 19.931C17.8168 19.5093 18.3167 19.0465 18.7794 18.5584C18.0472 18.7868 17.2955 18.9001 16.5516 18.9001C16.0712 18.6775 15.6573 18.3748 15.3117 18.0175Z" fill="#C89211"/>
<path d="M29.1236 16.7074C29.7289 16.7074 30.3303 16.6058 30.9023 16.4106C31.0293 16.4906 31.1796 16.5395 31.3417 16.5395C31.7947 16.5395 32.1617 16.1724 32.1617 15.7194C32.1617 15.2645 31.7947 14.8974 31.3417 14.8974C31 14.8974 30.7071 15.1063 30.5821 15.405C30.1506 15.5554 29.6976 15.6413 29.2368 15.653C29.6117 15.1824 29.9554 14.6845 30.2639 14.1613C30.3205 14.0656 30.3752 13.966 30.4298 13.8664C30.4474 13.8645 30.465 13.8625 30.4826 13.8606C30.8692 13.7922 31.162 13.4564 31.162 13.0522C31.162 12.5992 30.793 12.2322 30.34 12.2322C30.2463 12.2322 30.1526 12.2497 30.0667 12.281C30.0257 12.2946 29.9827 12.3122 29.9437 12.3356C29.6918 12.4743 29.518 12.7437 29.518 13.0542C29.518 13.0991 29.5219 13.144 29.5297 13.187C29.5336 13.2123 29.5414 13.2397 29.5473 13.2651C29.4419 13.4603 29.3325 13.6536 29.2154 13.843C29.026 13.0229 29.1158 12.1541 29.475 11.3887H29.4868C29.5473 11.3887 29.6059 11.3828 29.6625 11.3691C29.1763 11.4023 28.7194 11.459 28.2899 11.5312C27.9404 12.6344 27.995 13.843 28.4675 14.9189C27.5577 16.0884 26.4271 17.092 25.117 17.8633C24.6015 17.9199 24.0958 18.0097 23.594 18.1327C23.6799 18.0058 23.7854 17.8906 23.9064 17.791C24.2579 17.4982 24.703 17.3595 25.158 17.4025L25.2537 16.354C24.5195 16.2856 23.799 16.5082 23.2308 16.9827C22.7466 17.3849 22.4225 17.9258 22.2956 18.531C21.8348 18.7009 21.3837 18.8981 20.9464 19.1227V16.7972C22.2799 16.272 23.512 15.53 24.6035 14.5889C24.9295 14.3097 25.2361 14.0148 25.529 13.7083C25.9898 13.8176 26.4564 13.8742 26.9309 13.8742C27.0676 13.8742 27.2062 13.8703 27.3468 13.8606L27.2745 12.8082C26.9582 12.8296 26.6419 12.8218 26.3315 12.7828C26.5775 12.4704 26.8079 12.1482 27.0207 11.8143C26.31 12.0135 25.7047 12.2595 25.1892 12.5075C24.8553 12.8999 24.4941 13.2729 24.1036 13.6224C24.0607 13.4759 24.0216 13.3314 23.9884 13.183C23.6623 13.3939 23.3558 13.6165 23.0707 13.8489C23.1195 14.0129 23.1703 14.1769 23.2269 14.337C22.6646 14.7529 22.0691 15.1161 21.4423 15.4226C20.8976 16.0338 20.3977 16.6644 19.8881 17.2834V17.5411C19.8471 17.506 19.8041 17.4708 19.7612 17.4376C19.5366 17.7071 19.3082 17.9746 19.0719 18.2382C19.1364 18.287 19.1969 18.3397 19.2574 18.3924C19.0954 18.4549 18.9333 18.5115 18.7712 18.5623C18.3085 19.0485 17.8086 19.5132 17.2346 19.9349C18.1406 19.8627 19.0348 19.6401 19.8881 19.275V21.9988H15.7175V25.4098C15.1317 25.6168 14.71 26.1733 14.71 26.8274C14.71 27.6572 15.3836 28.3308 16.2154 28.3308C17.0452 28.3308 17.7188 27.6572 17.7188 26.8274C17.7188 26.1948 17.3244 25.6519 16.7718 25.4313V23.0512H19.8959V26.4681C19.316 26.677 18.9001 27.2316 18.9001 27.8837C18.9001 28.7135 19.5737 29.3871 20.4036 29.3871C21.2353 29.3871 21.909 28.7135 21.909 27.8837C21.909 27.2472 21.5106 26.7044 20.9522 26.4837V23.0512H24.0763V25.4313C23.5218 25.6539 23.1273 26.1948 23.1273 26.8274C23.1273 27.6572 23.801 28.3308 24.6328 28.3308C25.4626 28.3308 26.1362 27.6572 26.1362 26.8274C26.1362 26.1733 25.7145 25.6149 25.1307 25.4098V21.9988H20.9503V20.3254C23.7814 18.6853 27.1789 18.4295 30.1838 19.4995C30.2834 19.8412 30.5978 20.0892 30.9687 20.0892C31.4237 20.0892 31.7908 19.7221 31.7908 19.2672C31.7908 18.8142 31.4237 18.4471 30.9687 18.4471C30.8438 18.4471 30.7247 18.4744 30.6192 18.5252C29.4887 18.1093 28.2977 17.8633 27.0734 17.8047C27.5264 17.4493 27.9521 17.0647 28.3543 16.6566C28.6081 16.6879 28.8659 16.7074 29.1236 16.7074ZM17.1721 26.8235C17.1721 27.3526 16.7426 27.7822 16.2134 27.7822C15.6843 27.7822 15.2547 27.3507 15.2547 26.8235C15.2547 26.2943 15.6843 25.8648 16.2134 25.8648C16.7426 25.8648 17.1721 26.2963 17.1721 26.8235ZM21.3603 27.8817C21.3603 28.4109 20.9307 28.8404 20.4016 28.8404C19.8725 28.8404 19.4429 28.4089 19.4429 27.8817C19.4429 27.3975 19.8022 26.9992 20.2669 26.9328H20.5344C21.001 26.9972 21.3603 27.3975 21.3603 27.8817ZM25.5875 26.8235C25.5875 27.3526 25.158 27.7822 24.6288 27.7822C24.0997 27.7822 23.6702 27.3507 23.6702 26.8235C23.6702 26.2943 24.0997 25.8648 24.6288 25.8648C25.158 25.8648 25.5875 26.2963 25.5875 26.8235Z" fill="#00783F"/>
<path d="M54.5769 13.9743L50.4356 23.9205C49.7346 25.6056 48.0867 26.7049 46.2611 26.7049C45.7905 26.7049 45.4781 26.2167 45.6753 25.7891L54.7136 6.25984C55.0651 5.50226 56.1409 5.49835 56.4982 6.25399L67.4793 29.5575C67.6628 29.9461 67.3797 30.3932 66.9502 30.3932H66.7822C64.982 30.3932 63.3555 29.3271 62.637 27.6772L56.6642 13.9587C56.2639 13.041 54.9616 13.0508 54.5769 13.9743Z" fill="#BF9000"/>
<path d="M74.7409 16.2684C74.4383 16.0263 74.1552 15.8447 73.8935 15.7236C73.6319 15.6026 73.298 15.542 72.8958 15.542C72.0894 15.542 71.5036 15.8505 71.1405 16.4656C70.7773 17.0806 70.5957 17.8831 70.5957 18.8711V26.7066H67.3584V12.789H70.5957V14.4525C71.0194 13.8472 71.5075 13.363 72.064 12.9998C72.6185 12.6367 73.1887 12.4551 73.7725 12.4551C74.2762 12.4551 74.7507 12.541 75.1939 12.7128C75.6371 12.8846 76.0198 13.1521 76.344 13.5153L74.7409 16.2684Z" fill="#BF9000"/>
<path d="M91.851 19.7469C91.851 21.2797 91.5386 22.5859 90.9138 23.6657C90.289 24.7454 89.4611 25.5714 88.4321 26.1474C87.4031 26.7214 86.2843 27.0104 85.0737 27.0104C84.0448 27.0104 83.1271 26.7839 82.3207 26.3289C81.5143 25.876 80.8485 25.2238 80.3232 24.3784V26.7077H77.0254V3.10742H80.3232V15.1175C80.8465 14.2701 81.5123 13.6199 82.3207 13.1669C83.1271 12.7139 84.0448 12.4855 85.0737 12.4855C86.2843 12.4855 87.4031 12.7725 88.4321 13.3485C89.4611 13.9225 90.287 14.7504 90.9138 15.8302C91.5386 16.908 91.851 18.2142 91.851 19.7469ZM88.4614 19.7469C88.4614 18.3548 88.0475 17.2711 87.2215 16.494C86.3937 15.7169 85.4154 15.3303 84.2869 15.3303C83.6406 15.3303 83.0158 15.5021 82.4105 15.8438C81.8052 16.1875 81.3054 16.6854 80.9129 17.3414C80.5204 17.9975 80.3232 18.798 80.3232 19.7469C80.3232 20.6959 80.5204 21.4964 80.9129 22.1525C81.3054 22.8085 81.8052 23.3084 82.4105 23.6501C83.0158 23.9937 83.6406 24.1636 84.2869 24.1636C85.4154 24.1636 86.3937 23.775 87.2215 22.9979C88.0494 22.2228 88.4614 21.1371 88.4614 19.7469Z" fill="#BF9000"/>
<path d="M93.1416 19.7478C93.1416 18.3166 93.4696 17.0553 94.1257 15.9657C94.7817 14.8762 95.674 14.0249 96.8026 13.4099C97.9312 12.7948 99.212 12.4863 100.645 12.4863C102.057 12.4863 103.332 12.7948 104.472 13.4099C105.611 14.0249 106.509 14.8782 107.165 15.9657C107.821 17.0553 108.149 18.3166 108.149 19.7478C108.149 21.181 107.821 22.4404 107.165 23.5299C106.509 24.6194 105.611 25.4707 104.472 26.0857C103.332 26.7008 102.057 27.0093 100.645 27.0093C99.212 27.0093 97.9331 26.7027 96.8026 26.0857C95.6721 25.4707 94.7798 24.6174 94.1257 23.5299C93.4696 22.4404 93.1416 21.179 93.1416 19.7478ZM96.5 19.7478C96.5 21.0384 96.8983 22.0928 97.6949 22.909C98.4916 23.7251 99.4756 24.1352 100.645 24.1352C101.815 24.1352 102.799 23.7271 103.595 22.909C104.392 22.0928 104.79 21.0384 104.79 19.7478C104.79 18.4377 104.392 17.3774 103.595 16.571C102.799 15.7646 101.815 15.3605 100.645 15.3605C99.4756 15.3605 98.4916 15.7646 97.6949 16.571C96.8983 17.3774 96.5 18.4357 96.5 19.7478Z" fill="#BF9000"/>
<path d="M117.115 16.2684C116.812 16.0263 116.529 15.8447 116.268 15.7236C116.006 15.6026 115.672 15.542 115.27 15.542C114.463 15.542 113.878 15.8505 113.514 16.4656C113.151 17.0806 112.97 17.8831 112.97 18.8711V26.7066H109.732V12.789H112.97V14.4525C113.393 13.8472 113.882 13.363 114.436 12.9998C114.991 12.6367 115.561 12.4551 116.147 12.4551C116.65 12.4551 117.125 12.541 117.568 12.7128C118.011 12.8846 118.394 13.1521 118.718 13.5153L117.115 16.2684Z" fill="#BF9000"/>
<path d="M135.997 12.7887H139.566L142.804 21.0792L146.675 11.7305L150.729 21.1085L153.996 12.7887H157.569L151.065 27.6729L146.677 18.2949L142.503 27.6729L135.997 12.7887Z" fill="#00783F"/>
<path d="M160.18 16.4187L158.848 14.1186C159.495 13.7359 160.311 13.363 161.299 12.9998C162.287 12.6367 163.437 12.4551 164.747 12.4551C166.442 12.4551 167.838 12.8339 168.937 13.5895C170.036 14.3451 170.587 15.4093 170.587 16.7819V26.7047H167.381V24.799C166.938 25.5449 166.282 26.0994 165.415 26.4626C164.548 26.8257 163.669 27.0073 162.783 27.0073C161.894 27.0073 161.084 26.8355 160.348 26.4938C159.612 26.1521 159.022 25.6464 158.579 24.9806C158.136 24.3148 157.913 23.5084 157.913 22.5595C157.913 21.2083 158.388 20.1344 159.335 19.3378C160.282 18.5411 161.623 18.1428 163.359 18.1428C164.267 18.1428 165.054 18.2443 165.719 18.4455C166.385 18.6466 166.94 18.8692 167.383 19.1113V17.4165C167.383 16.5691 167.106 15.9755 166.551 15.6319C165.997 15.2882 165.286 15.1183 164.419 15.1183C163.431 15.1183 162.552 15.2804 161.787 15.6026C161.018 15.9247 160.483 16.1981 160.18 16.4187ZM161.209 22.3798C161.209 23.0866 161.451 23.6255 161.935 23.9985C162.42 24.3714 163.044 24.5589 163.812 24.5589C164.78 24.5589 165.616 24.2621 166.323 23.6665C167.028 23.071 167.381 22.2392 167.381 21.1712V20.9603C166.412 20.5171 165.333 20.2945 164.144 20.2945C163.115 20.2945 162.369 20.482 161.904 20.8549C161.439 21.2239 161.209 21.7335 161.209 22.3798Z" fill="#00783F"/>
<path d="M176.472 33.3609H173.174V12.7889H176.472V15.1183C176.975 14.2514 177.631 13.5797 178.438 13.1072C179.244 12.6327 180.172 12.3965 181.222 12.3965C182.433 12.3965 183.552 12.6894 184.581 13.2732C185.61 13.8589 186.435 14.6946 187.062 15.7841C187.687 16.8737 187.999 18.1955 187.999 19.7478C187.999 21.302 187.687 22.6219 187.062 23.7114C186.437 24.801 185.61 25.6327 184.581 26.2068C183.552 26.7808 182.433 27.0698 181.222 27.0698C180.174 27.0698 179.246 26.8374 178.438 26.3747C177.631 25.91 176.975 25.2461 176.472 24.3772V33.3609ZM184.61 19.7478C184.61 18.3556 184.196 17.2817 183.37 16.5261C182.542 15.7705 181.564 15.3917 180.435 15.3917C179.789 15.3917 179.164 15.5576 178.559 15.8915C177.954 16.2235 177.454 16.7135 177.061 17.3598C176.669 18.0061 176.472 18.8028 176.472 19.7497C176.472 20.6987 176.669 21.4953 177.061 22.1396C177.454 22.7859 177.954 23.2741 178.559 23.606C179.164 23.9379 179.789 24.1058 180.435 24.1058C181.564 24.1058 182.542 23.7271 183.37 22.9714C184.198 22.2119 184.61 21.138 184.61 19.7478Z" fill="#00783F"/>
<path d="M134.76 13.1698L129.788 11.4808C129.55 11.3988 129.488 11.0903 129.677 10.9263L130.419 10.2761V10.2468C129.742 9.64933 128.867 9.34864 127.793 9.34864C126.805 9.34864 126.079 9.57318 125.616 10.0281C125.149 10.4831 124.921 11.0103 124.921 11.6175C124.921 12.4434 125.292 13.1502 126.04 13.734C126.264 13.9098 126.53 14.0835 126.84 14.2593C128.213 15.4913 130.718 18.0531 131.259 21.2474C131.294 21.4583 131.315 21.6535 131.323 21.8332C131.282 21.1966 131.101 20.6694 130.773 20.2555C130.4 19.781 129.868 19.3788 129.183 19.0449C128.498 18.7111 127.711 18.385 126.824 18.0628C126.299 17.8812 125.713 17.6372 125.067 17.3365C124.423 17.0338 123.808 16.6414 123.224 16.1552C122.638 15.671 122.154 15.0793 121.769 14.3842C121.387 13.6891 121.195 12.8456 121.195 11.8577C121.195 10.7291 121.488 9.73524 122.072 8.87613C122.658 8.02092 123.45 7.34924 124.446 6.86502C125.446 6.38274 126.58 6.13867 127.85 6.13867C129.101 6.13867 130.191 6.36517 131.118 6.82011C131.811 7.1579 132.422 7.56207 132.953 8.03068C132.959 8.03654 132.969 8.03654 132.975 8.03068L133.625 7.46249C133.815 7.29653 134.113 7.39806 134.162 7.64603L135.185 12.7949C135.236 13.0428 134.998 13.2498 134.76 13.1698Z" fill="#00783F"/>
<path d="M135.476 21.402C135.476 22.7161 135.138 23.8446 134.463 24.7916C133.785 25.7386 132.914 26.4649 131.844 26.9706C130.774 27.4744 129.638 27.7263 128.427 27.7263C127.176 27.7263 126.026 27.4803 124.977 26.9843C123.927 26.4923 123.005 25.8304 122.206 25.0025C121.816 24.5983 121.466 24.1766 121.156 23.7372C120.598 22.9484 120.84 21.8374 121.697 21.3473C122.439 20.9217 123.386 21.1931 123.897 21.8804C124.339 22.4759 124.815 22.9875 125.321 23.4151C125.86 23.8681 126.457 24.1805 127.115 24.3523C127.144 24.3601 127.172 24.3679 127.199 24.3738C127.543 24.4694 127.908 24.5261 128.298 24.528C128.747 24.5339 129.585 24.5358 130.313 24.075C130.321 24.075 130.327 24.0692 130.335 24.0614C130.501 23.9657 130.655 23.8564 130.798 23.7314C131.391 23.2062 131.688 22.5208 131.688 21.6734V21.6402C131.688 21.5621 131.686 21.4782 131.68 21.3903C131.672 21.2107 131.651 21.0174 131.616 20.8045C131.075 17.6102 128.57 15.0485 127.197 13.8164C127.924 14.2245 128.884 14.6365 130.087 15.0465C130.934 15.3277 131.772 15.7318 132.6 16.2571C133.426 16.7823 134.111 17.4618 134.658 18.2994C135.206 19.139 135.476 20.1719 135.476 21.402Z" fill="#BF9000"/>
</svg>
