<svg width="414" height="579" viewBox="0 0 414 579" fill="none" xmlns="http://www.w3.org/2000/svg">
<g opacity="0.12">
<path d="M411.91 115.212C401.181 115.212 392.524 123.868 392.524 134.598C392.524 135.242 392.57 135.933 392.616 136.532C388.933 143.162 385.94 150.116 383.683 157.299C393.768 155.595 404.543 154.26 416.055 153.477C424.712 151.635 431.204 143.853 431.204 134.598C431.204 123.868 422.547 115.212 411.91 115.212ZM394.689 95.6412C394.689 84.9121 386.032 76.2551 375.303 76.2551C364.619 76.2551 355.962 84.9121 355.962 95.6412C355.962 98.2199 356.469 100.706 357.39 102.963C346.2 131.052 330.498 157.253 310.651 180.415C322.808 174.567 337.083 168.811 353.844 164.068C363.975 148.366 372.54 131.743 379.631 114.521C388.242 112.541 394.689 104.851 394.689 95.6412ZM333.813 47.7055C333.813 37.0224 325.156 28.3654 314.427 28.3654C303.744 28.3654 295.087 37.0224 295.087 47.7055C295.087 49.8697 295.456 51.9419 296.1 53.8759C294.074 56.7309 291.68 59.3095 288.917 61.6119C283.944 65.7102 278.234 68.5651 272.109 69.9465C274.136 62.5789 275.793 55.0731 277.359 47.5213C284.128 44.5282 288.871 37.7131 288.871 29.839C288.871 19.1559 280.214 10.4989 269.485 10.4989C258.802 10.4989 250.145 19.1559 250.145 29.839C250.145 33.8451 251.342 37.4829 253.414 40.5681C245.862 79.2482 231.449 116.04 210.59 149.701V33.9372C214.642 30.3915 217.221 25.1881 217.221 19.3861C217.221 8.65698 208.564 0 197.834 0C187.151 0 178.494 8.65698 178.494 19.3861C178.494 25.4644 181.303 30.8981 185.678 34.4437V198.512C163.068 182.994 139.124 170.146 114.12 160.108C114.028 150.208 112.6 140.584 109.975 131.328C141.84 111.896 160.766 76.5314 159.661 39.509C162.055 36.2856 163.483 32.3255 163.483 27.997C163.483 17.2679 154.826 8.61094 144.143 8.61094C133.414 8.61094 124.757 17.2679 124.757 27.997C124.757 35.3647 128.855 41.7193 134.841 44.9887C134.104 70.0847 121.349 93.6151 100.489 107.89C92.8916 93.8914 82.3466 81.6887 69.6835 72.0187C69.223 61.704 60.7963 53.5075 50.3895 53.5075C39.6604 53.5075 31.0034 62.1645 31.0034 72.8936C31.0034 83.5767 39.6604 92.2337 50.3895 92.2337C51.8631 92.2337 53.2445 92.0955 54.5799 91.7732C73.1371 105.864 85.7542 127.138 88.6091 150.945C61.3489 142.288 33.0295 136.808 3.92733 134.552C0.519794 128.934 -5.60455 125.112 -12.6499 125.112C-23.379 125.112 -32.036 133.769 -32.036 144.452C-32.036 155.181 -23.379 163.838 -12.6499 163.838C-7.90694 163.838 -3.53241 162.088 -0.170921 159.233C6.5981 159.694 13.3211 160.338 19.952 161.167C8.85445 173.784 -5.83478 182.349 -21.8134 185.987C-25.359 181.797 -30.6545 179.126 -36.5947 179.126C-47.3238 179.126 -55.9808 187.783 -55.9808 198.466C-55.9808 209.149 -47.3238 217.852 -36.5947 217.852C-30.8848 217.852 -25.7735 215.319 -22.2278 211.405C5.67715 206.708 31.3257 190.73 47.5346 165.818C82.9913 173.278 116.882 186.263 148.379 204.406C134.473 207.906 120.06 209.748 105.417 209.748V234.613C129.638 234.613 153.214 230.331 175.685 221.904C179.047 224.299 182.362 226.693 185.632 229.18V293.048C197.65 278.451 209.438 263.577 222.286 249.164C218.418 251.098 214.504 252.94 210.498 254.644V193.355C233.614 163.424 251.526 130.591 263.959 95.8254C278.878 95.6412 293.153 90.4378 304.803 80.7678C309.684 76.6695 313.921 71.9727 317.328 66.8614C326.722 65.3418 333.813 57.3755 333.813 47.7055ZM284.542 150.945C284.542 141.09 276.622 133.17 266.768 133.17C256.914 133.17 248.993 141.09 248.993 150.945C248.993 155.273 250.513 159.233 253.092 162.318C253.552 179.264 256.131 195.933 260.736 212.05C267.459 206.616 274.642 201.321 282.378 196.348C279.984 185.987 278.556 175.442 278.05 164.713C282.01 161.443 284.542 156.47 284.542 150.945ZM124.48 260.216C114.626 260.216 106.66 268.136 106.66 277.99C106.66 287.845 114.626 295.765 124.48 295.765C127.243 295.765 129.868 295.12 132.216 293.969C144.419 299.817 155.885 307 166.384 315.519C171.956 309.303 177.343 303.04 182.639 296.64C169.745 286.141 155.609 277.392 140.505 270.439C137.696 264.406 131.572 260.216 124.48 260.216ZM77.6037 310.362C83.636 305.987 88.5631 300.185 92.0627 293.324C97.6806 282.043 98.6476 269.287 94.6414 257.361L71.065 265.143C72.9069 270.807 72.4464 276.839 69.7756 282.181C68.1179 285.496 65.6774 288.305 62.7764 290.377C47.995 264.13 45.3243 231.436 58.6321 201.873L35.9305 191.697C15.5774 237.192 25.2014 288.581 56.2376 323.762C26.6289 314.921 -0.631397 298.389 -22.3659 275.181C-22.3199 274.675 -22.2738 274.168 -22.2738 273.662C-22.2738 273.616 -22.2738 273.616 -22.2738 273.616C-22.2738 264.406 -28.7205 256.716 -37.3315 254.782C-38.7129 254.506 -40.1404 254.322 -41.6139 254.322C-42.1665 254.322 -42.719 254.368 -43.2716 254.414C-53.1719 255.243 -61 263.531 -61 273.662C-61 284.391 -52.297 293.048 -41.6139 293.048C-41.5218 293.048 -41.3376 293.048 -41.2455 293.002C-40.785 293.002 -40.2785 292.956 -39.8641 292.91C-16.0113 318.328 14.196 337.162 48.5016 347.476C67.7495 353.278 87.4119 356.179 106.936 356.179C112.324 356.179 117.757 355.949 123.145 355.489C136.683 345.542 148.471 334.629 159.385 323.117C142.117 328.505 124.388 331.176 106.844 331.176C95.5163 325.926 85.7542 318.789 77.6037 310.362Z" fill="url(#paint0_linear_1181_57688)"/>
<path d="M403.345 279.463C417.62 279.463 431.803 277.068 445.295 272.464C448.288 274.352 451.834 275.503 455.656 275.503C466.339 275.503 474.996 266.846 474.996 256.163C474.996 245.434 466.339 236.777 455.656 236.777C447.597 236.777 440.69 241.704 437.743 248.749C427.567 252.295 416.884 254.321 406.016 254.597C414.857 243.5 422.962 231.757 430.237 219.417C431.573 217.16 432.862 214.812 434.151 212.463C434.566 212.417 434.98 212.371 435.395 212.325C444.512 210.714 451.419 202.793 451.419 193.262C451.419 182.578 442.716 173.921 432.033 173.921C429.823 173.921 427.613 174.336 425.587 175.073C424.62 175.395 423.606 175.809 422.686 176.362C416.745 179.631 412.647 185.986 412.647 193.308C412.647 194.367 412.739 195.426 412.923 196.439C413.016 197.037 413.2 197.682 413.338 198.281C410.851 202.886 408.273 207.444 405.51 211.911C401.043 192.571 403.161 172.08 411.634 154.029H411.91C413.338 154.029 414.719 153.891 416.055 153.568C404.589 154.351 393.814 155.687 383.683 157.39C375.441 183.407 376.73 211.911 387.873 237.283C366.415 264.866 339.754 288.534 308.855 306.723C296.699 308.059 284.772 310.177 272.938 313.078C274.964 310.085 277.451 307.368 280.306 305.019C288.594 298.112 299.093 294.843 309.822 295.856L312.079 271.128C294.765 269.517 277.773 274.766 264.373 285.956C252.954 295.442 245.31 308.197 242.316 322.472C231.449 326.478 220.812 331.129 210.497 336.424V281.581C241.948 269.194 271.004 251.696 296.745 229.501C304.435 222.916 311.664 215.963 318.572 208.734C329.439 211.312 340.444 212.648 351.634 212.648C354.857 212.648 358.127 212.556 361.442 212.325L359.738 187.506C352.279 188.012 344.819 187.828 337.497 186.907C343.299 179.539 348.733 171.941 353.752 164.067C336.991 168.764 322.716 174.566 310.559 180.414C302.685 189.67 294.166 198.465 284.957 206.707C283.944 203.254 283.023 199.846 282.24 196.347C274.55 201.32 267.32 206.569 260.597 212.049C261.749 215.917 262.946 219.785 264.281 223.561C251.019 233.369 236.975 241.934 222.194 249.163C209.346 263.576 197.558 278.45 185.54 293.047V299.125C184.573 298.296 183.56 297.468 182.546 296.685C177.251 303.039 171.863 309.348 166.292 315.564C167.811 316.716 169.239 317.959 170.666 319.202C166.844 320.676 163.022 322.011 159.2 323.208C148.287 334.674 136.499 345.634 122.961 355.58C144.327 353.876 165.417 348.627 185.54 340.016V404.252H87.1816V484.698C73.3672 489.579 63.4209 502.702 63.4209 518.128C63.4209 537.699 79.3074 553.585 98.9238 553.585C118.494 553.585 134.381 537.699 134.381 518.128C134.381 503.209 125.079 490.408 112.047 485.204V429.072H185.724V509.656C172.048 514.583 162.239 527.66 162.239 543.04C162.239 562.611 178.126 578.497 197.696 578.497C217.313 578.497 233.199 562.611 233.199 543.04C233.199 528.029 223.805 515.227 210.636 510.024V429.072H284.312V485.204C271.234 490.454 261.933 503.209 261.933 518.128C261.933 537.699 277.819 553.585 297.436 553.585C317.006 553.585 332.892 537.699 332.892 518.128C332.892 502.702 322.946 489.533 309.178 484.698V404.252H210.59V364.789C277.359 326.109 357.482 320.077 428.349 345.311C430.698 353.37 438.112 359.218 446.861 359.218C457.59 359.218 466.247 350.561 466.247 339.832C466.247 329.148 457.59 320.491 446.861 320.491C443.914 320.491 441.105 321.136 438.618 322.333C411.956 312.525 383.867 306.723 354.995 305.342C365.678 296.961 375.717 287.89 385.203 278.266C391.189 279.002 397.267 279.463 403.345 279.463ZM121.487 518.036C121.487 530.515 111.357 540.646 98.8777 540.646C86.3988 540.646 76.2682 530.469 76.2682 518.036C76.2682 505.557 86.3988 495.427 98.8777 495.427C111.357 495.427 121.487 505.603 121.487 518.036ZM220.26 542.994C220.26 555.473 210.129 565.604 197.65 565.604C185.171 565.604 175.041 555.427 175.041 542.994C175.041 531.574 183.513 522.181 194.473 520.615H200.781C211.787 522.135 220.26 531.574 220.26 542.994ZM319.953 518.036C319.953 530.515 309.822 540.646 297.344 540.646C284.865 540.646 274.734 530.469 274.734 518.036C274.734 505.557 284.865 495.427 297.344 495.427C309.822 495.427 319.953 505.603 319.953 518.036Z" fill="url(#paint1_linear_1181_57688)"/>
</g>
<defs>
<linearGradient id="paint0_linear_1181_57688" x1="126.975" y1="-54.9925" x2="126.975" y2="429.764" gradientUnits="userSpaceOnUse">
<stop stop-color="#43785F"/>
<stop offset="1" stop-color="#F2F3F5" stop-opacity="0"/>
</linearGradient>
<linearGradient id="paint1_linear_1181_57688" x1="220.603" y1="87.9612" x2="220.603" y2="666.284" gradientUnits="userSpaceOnUse">
<stop stop-color="#43785F"/>
<stop offset="1" stop-color="#F2F3F5" stop-opacity="0"/>
</linearGradient>
</defs>
</svg>
