<svg width="844" height="817" viewBox="0 0 844 817" fill="none" xmlns="http://www.w3.org/2000/svg">
<g opacity="0.15">
<path d="M743.907 181.232C727.029 181.232 713.412 194.85 713.412 211.727C713.412 212.741 713.484 213.828 713.557 214.77C707.762 225.2 703.053 236.138 699.504 247.438C715.367 244.758 732.317 242.657 750.426 241.426C764.044 238.528 774.257 226.287 774.257 211.727C774.257 194.85 760.639 181.232 743.907 181.232ZM716.816 150.447C716.816 133.57 703.198 119.952 686.321 119.952C669.516 119.952 655.898 133.57 655.898 150.447C655.898 154.504 656.695 158.415 658.144 161.965C640.542 206.15 615.842 247.365 584.622 283.8C603.745 274.601 626.2 265.546 652.566 258.086C668.502 233.385 681.975 207.236 693.13 180.146C706.675 177.031 716.816 164.934 716.816 150.447ZM621.057 75.0426C621.057 58.2377 607.439 44.6199 590.562 44.6199C573.757 44.6199 560.139 58.2377 560.139 75.0426C560.139 78.4471 560.719 81.7066 561.733 84.7489C558.546 89.2399 554.779 93.2962 550.433 96.9179C542.61 103.365 533.628 107.856 523.994 110.029C527.181 98.4391 529.789 86.6322 532.252 74.7529C542.9 70.0446 550.361 59.3242 550.361 46.9378C550.361 30.1329 536.743 16.5152 519.865 16.5152C503.061 16.5152 489.443 30.1329 489.443 46.9378C489.443 53.2397 491.326 58.962 494.586 63.8152C482.706 124.661 460.034 182.536 427.221 235.486V53.3845C433.596 47.8071 437.652 39.6219 437.652 30.4951C437.652 13.6178 424.034 0 407.157 0C390.352 0 376.734 13.6178 376.734 30.4951C376.734 40.0565 381.153 48.6038 388.034 54.1813V312.267C352.468 287.856 314.802 267.647 275.47 251.856C275.325 236.283 273.08 221.144 268.951 206.584C319.076 176.017 348.847 120.387 347.108 62.1492C350.875 57.0787 353.12 50.8493 353.12 44.0404C353.12 27.1631 339.503 13.5453 322.698 13.5453C305.82 13.5453 292.203 27.1631 292.203 44.0404C292.203 55.63 298.649 65.6261 308.066 70.7689C306.907 110.246 286.842 147.26 254.029 169.715C242.078 147.695 225.49 128.5 205.57 113.288C204.846 97.0628 191.59 84.1694 175.22 84.1694C158.343 84.1694 144.725 97.7872 144.725 114.664C144.725 131.469 158.343 145.087 175.22 145.087C177.538 145.087 179.711 144.87 181.812 144.363C211.003 166.528 230.85 199.993 235.341 237.442C192.46 223.824 147.912 215.204 102.133 211.655C96.7731 202.818 87.1392 196.806 76.0567 196.806C59.1793 196.806 45.5616 210.423 45.5616 227.228C45.5616 244.106 59.1793 257.724 76.0567 257.724C83.5175 257.724 90.3988 254.971 95.6865 250.48C106.334 251.204 116.91 252.218 127.341 253.522C109.884 273.369 86.7771 286.842 61.6421 292.565C56.0647 285.973 47.7346 281.772 38.3905 281.772C21.5132 281.772 7.89541 295.39 7.89541 312.195C7.89541 329 21.5132 342.69 38.3905 342.69C47.3724 342.69 55.4127 338.706 60.9902 332.549C104.886 325.16 145.232 300.026 170.729 260.838C226.504 272.573 279.816 292.999 329.362 321.539C307.486 327.044 284.814 329.941 261.78 329.941V369.056C299.881 369.056 336.967 362.32 372.316 349.064C377.603 352.831 382.819 356.597 387.961 360.509V460.976C406.867 438.014 425.41 414.618 445.62 391.945C439.535 394.988 433.378 397.885 427.076 400.565V304.154C463.439 257.072 491.616 205.425 511.173 150.737C534.642 150.447 557.097 142.262 575.423 127.051C583.101 120.604 589.765 113.216 595.125 105.176C609.902 102.785 621.057 90.2539 621.057 75.0426ZM543.552 237.442C543.552 221.941 531.093 209.482 515.592 209.482C500.091 209.482 487.632 221.941 487.632 237.442C487.632 244.251 490.022 250.48 494.079 255.333C494.803 281.989 498.859 308.211 506.103 333.563C516.678 325.016 527.978 316.686 540.147 308.863C536.381 292.565 534.135 275.977 533.338 259.1C539.568 253.957 543.552 246.134 543.552 237.442ZM291.768 409.33C276.267 409.33 263.736 421.789 263.736 437.29C263.736 452.791 276.267 465.25 291.768 465.25C296.114 465.25 300.243 464.236 303.937 462.425C323.132 471.624 341.169 482.924 357.684 496.324C366.448 486.545 374.923 476.694 383.253 466.626C362.971 450.111 340.734 436.348 316.975 425.41C312.557 415.921 302.923 409.33 291.768 409.33ZM218.029 488.211C227.518 481.33 235.269 472.203 240.774 461.411C249.611 443.664 251.132 423.599 244.83 404.839L207.743 417.08C210.641 425.99 209.916 435.479 205.715 443.881C203.108 449.097 199.268 453.515 194.705 456.775C171.453 415.487 167.252 364.058 188.186 317.555L152.476 301.547C120.459 373.112 135.598 453.95 184.419 509.29C137.844 495.383 94.9622 469.378 60.7729 432.871C60.8453 432.074 60.9178 431.278 60.9178 430.481C60.9178 430.408 60.9178 430.408 60.9178 430.408C60.9178 415.921 50.7769 403.825 37.2315 400.782C35.0585 400.348 32.813 400.058 30.4951 400.058C29.6259 400.058 28.7567 400.131 27.8874 400.203C12.3139 401.507 0 414.545 0 430.481C0 447.358 13.6902 460.976 30.4951 460.976C30.64 460.976 30.9297 460.976 31.0746 460.904C31.7989 460.904 32.5957 460.831 33.2476 460.759C70.7689 500.743 118.286 530.369 172.25 546.594C202.528 555.721 233.458 560.284 264.17 560.284C272.645 560.284 281.192 559.922 289.667 559.198C310.963 543.552 329.507 526.385 346.674 508.276C319.51 516.751 291.623 520.952 264.025 520.952C246.206 512.694 230.85 501.467 218.029 488.211Z" fill="url(#paint0_linear_1181_56911)"/>
<path d="M730.433 439.607C752.888 439.607 775.198 435.841 796.422 428.597C801.13 431.567 806.707 433.378 812.72 433.378C829.524 433.378 843.142 419.76 843.142 402.955C843.142 386.078 829.524 372.46 812.72 372.46C800.043 372.46 789.178 380.211 784.542 391.293C768.534 396.871 751.729 400.058 734.635 400.493C748.542 383.036 761.291 364.565 772.735 345.152C774.836 341.603 776.864 337.909 778.892 334.215C779.544 334.142 780.196 334.07 780.848 333.997C795.19 331.462 806.056 319.003 806.056 304.009C806.056 287.204 792.365 273.587 775.56 273.587C772.083 273.587 768.607 274.238 765.42 275.397C763.898 275.904 762.305 276.556 760.856 277.426C751.512 282.568 745.065 292.565 745.065 304.082C745.065 305.748 745.21 307.414 745.5 309.007C745.645 309.949 745.935 310.963 746.152 311.905C742.24 319.148 738.184 326.319 733.838 333.345C726.812 302.923 730.144 270.689 743.472 242.295H743.906C746.152 242.295 748.325 242.077 750.425 241.57C732.389 242.802 715.439 244.902 699.504 247.582C686.538 288.508 688.566 333.345 706.095 373.257C672.341 416.646 630.401 453.877 581.797 482.489C562.674 484.59 543.913 487.922 525.298 492.485C528.485 487.777 532.396 483.503 536.887 479.809C549.926 468.944 566.441 463.801 583.318 465.394L586.867 426.497C559.632 423.962 532.903 432.219 511.825 449.821C493.861 464.742 481.837 484.807 477.129 507.262C460.034 513.564 443.301 520.879 427.076 529.209V442.939C476.549 423.454 522.255 395.929 562.747 361.016C574.843 350.657 586.215 339.72 597.081 328.347C614.175 332.404 631.487 334.504 649.089 334.504C654.159 334.504 659.302 334.359 664.518 333.997L661.838 294.955C650.103 295.752 638.369 295.462 626.852 294.013C635.978 282.424 644.526 270.472 652.421 258.085C626.055 265.474 603.6 274.601 584.477 283.8C572.091 298.359 558.69 312.194 544.203 325.16C542.61 319.728 541.161 314.367 539.93 308.862C527.833 316.685 516.461 324.943 505.885 333.563C507.696 339.647 509.579 345.732 511.68 351.671C490.819 367.1 468.726 380.573 445.474 391.945C425.265 414.617 406.722 438.014 387.816 460.976V470.537C386.295 469.233 384.702 467.929 383.108 466.698C374.778 476.694 366.303 486.618 357.538 496.396C359.929 498.207 362.174 500.163 364.42 502.119C358.408 504.437 352.396 506.537 346.383 508.421C329.216 526.457 310.673 543.696 289.377 559.342C322.987 556.662 356.162 548.405 387.816 534.859V635.906H233.095V762.45C211.365 770.128 195.719 790.772 195.719 815.038C195.719 845.823 220.709 870.813 251.566 870.813C282.351 870.813 307.341 845.823 307.341 815.038C307.341 791.569 292.709 771.432 272.21 763.247V674.949H388.106V801.71C366.593 809.46 351.164 830.032 351.164 854.225C351.164 885.01 376.154 910 406.939 910C437.796 910 462.786 885.01 462.786 854.225C462.786 830.611 448.01 810.474 427.293 802.289V674.949H543.189V763.247C522.618 771.504 507.986 791.569 507.986 815.038C507.986 845.823 532.976 870.813 563.833 870.813C594.618 870.813 619.608 845.823 619.608 815.038C619.608 790.772 603.962 770.056 582.304 762.45V635.906H427.221V573.829C532.251 512.984 658.288 503.495 769.766 543.189C773.46 555.866 785.122 565.065 798.884 565.065C815.762 565.065 829.38 551.447 829.38 534.57C829.38 517.765 815.762 504.147 798.884 504.147C794.249 504.147 789.83 505.161 785.919 507.044C743.979 491.616 699.793 482.489 654.377 480.316C671.182 467.133 686.972 452.863 701.894 437.724C711.311 438.883 720.872 439.607 730.433 439.607ZM287.059 814.893C287.059 834.523 271.124 850.458 251.494 850.458C231.864 850.458 215.928 834.45 215.928 814.893C215.928 795.263 231.864 779.327 251.494 779.327C271.124 779.327 287.059 795.335 287.059 814.893ZM442.432 854.153C442.432 873.782 426.496 889.718 406.867 889.718C387.237 889.718 371.301 873.71 371.301 854.153C371.301 836.189 384.629 821.412 401.869 818.949H411.792C429.104 821.34 442.432 836.189 442.432 854.153ZM599.254 814.893C599.254 834.523 583.318 850.458 563.688 850.458C544.058 850.458 528.123 834.45 528.123 814.893C528.123 795.263 544.058 779.327 563.688 779.327C583.318 779.327 599.254 795.335 599.254 814.893Z" fill="url(#paint1_linear_1181_56911)"/>
</g>
<defs>
<linearGradient id="paint0_linear_1181_56911" x1="295.692" y1="-86.5054" x2="295.692" y2="676.035" gradientUnits="userSpaceOnUse">
<stop stop-color="#43785F"/>
<stop offset="1" stop-color="#F2F3F5" stop-opacity="0"/>
</linearGradient>
<linearGradient id="paint1_linear_1181_56911" x1="442.973" y1="138.368" x2="442.973" y2="1048.09" gradientUnits="userSpaceOnUse">
<stop stop-color="#43785F"/>
<stop offset="1" stop-color="#F2F3F5" stop-opacity="0"/>
</linearGradient>
</defs>
</svg>
