<svg width="34" height="34" viewBox="0 0 34 34" fill="none" xmlns="http://www.w3.org/2000/svg">
<circle cx="17" cy="17" r="17" fill="#EDF0F4"/>
<path d="M22.1007 13.5857C21.7382 13.3772 21.2721 13.3772 20.8578 13.5857L17.9579 15.3059L15.9901 16.4005L13.142 18.1207C12.7795 18.3292 12.3135 18.3292 11.8992 18.1207L9.67246 16.7654C9.30997 16.5569 9.05105 16.1399 9.05105 15.6708V13.0644C9.05105 12.6474 9.25819 12.2304 9.67246 11.9698L11.8992 10.6666C12.2617 10.4581 12.7277 10.4581 13.142 10.6666L15.3687 12.0219C15.7312 12.2304 15.9901 12.6474 15.9901 13.1166V14.8367L17.9579 13.69V11.9177C17.9579 11.5006 17.7508 11.0836 17.3365 10.823L13.1938 8.37305C12.8313 8.16454 12.3652 8.16454 11.951 8.37305L7.70466 10.8751C7.29039 11.0836 7.08325 11.5006 7.08325 11.9177V16.8176C7.08325 17.2346 7.29039 17.6516 7.70466 17.9122L11.8992 20.3622C12.2617 20.5707 12.7277 20.5707 13.142 20.3622L15.9901 18.6941L17.9579 17.5473L20.8061 15.8793C21.1685 15.6708 21.6346 15.6708 22.0489 15.8793L24.2756 17.1824C24.6381 17.391 24.897 17.808 24.897 18.2771V20.8834C24.897 21.3004 24.6899 21.7175 24.2756 21.9781L22.1007 23.2813C21.7382 23.4898 21.2721 23.4898 20.8578 23.2813L18.6311 21.9781C18.2686 21.7696 18.0097 21.3526 18.0097 20.8834V19.2154L16.0419 20.3622V22.0823C16.0419 22.4994 16.249 22.9164 16.6633 23.177L20.8578 25.627C21.2203 25.8355 21.6864 25.8355 22.1007 25.627L26.2952 23.177C26.6577 22.9685 26.9166 22.5515 26.9166 22.0823V17.1303C26.9166 16.7133 26.7094 16.2963 26.2952 16.0357L22.1007 13.5857Z" fill="#8247E5"/>
</svg>
