<svg width="36" height="36" viewBox="0 0 36 36" fill="none" xmlns="http://www.w3.org/2000/svg">
<circle cx="18" cy="18" r="18" fill="url(#paint0_linear_3649_34384)"/>
<path d="M14.9466 5.89355C14.9466 5.89355 4.99851 7.98507 5.83511 19.1424C6.67172 30.2997 20.5252 33.5536 26.9861 26.8595C26.9861 26.8595 15.7832 32.6701 9.97253 23.977C4.1619 15.2839 10.2514 7.51985 14.9466 5.89355Z" fill="white"/>
<path d="M26.2031 7.5332C31.6749 11.3748 32.7213 19.32 28.6152 24.5572C24.599 29.8622 16.6447 30.8747 11.5391 26.5601C16.7046 30.3392 24.2966 29.3318 28.1539 24.2015C32.1349 19.1258 31.1797 11.5963 26.2031 7.5332Z" fill="white"/>
<path d="M6.65439 20.8253C4.91732 15.5919 7.57439 9.42948 12.3308 6.74374C13.9037 5.83156 15.6772 5.27903 17.4521 5.20215C15.7684 5.75858 14.2073 6.517 12.8286 7.51519C8.58561 10.515 6.34164 15.6545 6.65439 20.8253Z" fill="white"/>
<path d="M28.8882 15.7636C28.9859 19.9792 26.2858 24.0515 22.3778 25.6426C16.2518 28.2762 9.00252 24.4111 7.7828 17.8525C6.42885 11.3486 11.64 5.02327 18.286 5.1614C16.2088 5.18746 14.1433 5.81948 12.4271 6.9949C6.96835 10.6475 6.19169 18.5614 10.8712 23.1784C17.5536 29.767 28.7292 25.1213 28.8882 15.7636Z" fill="white"/>
<path d="M29.7496 13.8526C31.0058 17.7933 29.9268 22.3698 27.0873 25.3866C18.9832 33.9103 4.88343 27.2878 6.24519 15.6157C6.81336 10.8789 10.4413 6.72062 15.0791 5.60254C10.5859 6.94606 7.18084 11.0079 6.69738 15.6705C5.96763 22.2538 10.8596 28.1687 17.4703 28.6561C25.5575 29.2282 31.7382 21.6844 29.7496 13.8526Z" fill="white"/>
<path d="M31.1677 16.8676C31.414 21.0063 29.2078 25.0903 25.6959 27.2691C22.6505 29.2043 18.7255 29.6265 15.3269 28.4237C8.04249 25.8591 4.95669 17.1934 9.05892 10.6322C11.2377 7.12024 15.3217 4.91275 19.4618 5.16165C15.4768 5.35842 11.7525 7.58676 9.78085 11.0661C5.96922 17.7251 9.7574 26.2475 17.2842 27.8086C24.2937 29.2707 30.8237 23.9683 31.1677 16.8676Z" fill="white"/>
<path d="M28.7798 11.5537C30.7931 15.6039 30.079 20.703 27.0349 24.0507C20.2014 31.5841 7.73568 27.1586 7.18055 17.0034C6.96814 13.0771 8.95149 9.15079 12.251 7.01497C12.7162 6.70874 13.2049 6.4442 13.7053 6.20312C12.711 6.6944 11.7819 7.3186 10.9687 8.07441C7.21052 11.5186 6.24882 17.251 8.69739 21.7233C12.3305 28.5113 21.7482 29.6489 26.902 23.9308C29.9331 20.6665 30.7006 15.5739 28.7798 11.5537Z" fill="white"/>
<path d="M26.1997 7.5332C30.0531 10.4092 31.8227 15.563 30.5496 20.2035C27.6996 30.6154 13.7797 32.4163 8.373 23.0742C6.2841 19.462 6.27367 14.7916 8.36779 11.1833C8.66099 10.6698 8.9959 10.1838 9.35295 9.71463C8.64666 10.6581 8.06677 11.6954 7.6602 12.8017C5.75633 17.88 7.59634 23.7558 12.07 26.8233C18.7758 31.5081 28.2469 28.0548 30.3775 20.1579C31.6755 15.5995 29.9579 10.4235 26.1997 7.5332Z" fill="white"/>
<path d="M30.9187 17.7925C31.1402 25.7494 23.5626 32.0005 15.779 30.3989C4.56693 28.1263 1.66618 13.5352 11.205 7.19423C13.3031 5.82986 15.8038 5.10402 18.2862 5.16136C17.0482 5.19394 15.8155 5.3881 14.6362 5.7634C7.86644 7.91486 4.19293 15.2866 6.60371 21.9729C8.03063 26.01 11.6598 29.1492 15.865 29.9663C23.5847 31.5248 30.7793 25.6478 30.9187 17.7925Z" fill="white"/>
<path d="M28.3597 11.2287C30.5333 15.2163 30.016 20.3688 27.0918 23.8456C22.6038 29.3799 13.8468 29.3591 9.40969 23.7713C5.72186 19.3029 6.08673 12.4758 10.258 8.44916C11.0568 7.66338 11.9755 7.0066 12.9633 6.48145C11.9808 7.01442 11.0686 7.67902 10.2776 8.47001C6.17274 12.5097 5.80004 19.2729 9.48527 23.71C13.8963 29.2183 22.5686 29.2718 27.0318 23.7973C29.9417 20.3636 30.4851 15.1954 28.3597 11.2287Z" fill="white"/>
<path d="M26.465 23.3861C26.8097 23.3861 27.0892 23.1066 27.0892 22.7619C27.0892 22.4172 26.8097 22.1377 26.465 22.1377C26.1203 22.1377 25.8408 22.4172 25.8408 22.7619C25.8408 23.1066 26.1203 23.3861 26.465 23.3861Z" fill="white"/>
<path d="M5.76677 11.7308C6.11151 11.7308 6.39097 11.4514 6.39097 11.1066C6.39097 10.7619 6.11151 10.4824 5.76677 10.4824C5.42204 10.4824 5.14258 10.7619 5.14258 11.1066C5.14258 11.4514 5.42204 11.7308 5.76677 11.7308Z" fill="white"/>
<path d="M14.0572 30.5187C14.4329 30.5187 14.7374 30.2141 14.7374 29.8384C14.7374 29.4628 14.4329 29.1582 14.0572 29.1582C13.6815 29.1582 13.377 29.4628 13.377 29.8384C13.377 30.2141 13.6815 30.5187 14.0572 30.5187Z" fill="white"/>
<path d="M24.8215 11.6452C24.5179 11.6452 24.2729 11.8902 24.2729 12.1938C24.2729 12.212 24.2742 12.2316 24.2755 12.2485C24.1713 12.4362 24.0866 12.6329 24.0227 12.8362C24.3081 12.788 24.613 12.7502 24.9388 12.7281C25.1838 12.676 25.3676 12.4557 25.3676 12.1938C25.3676 11.8902 25.1226 11.6452 24.8215 11.6452ZM24.3342 11.0914C24.3342 10.7877 24.0892 10.5427 23.7856 10.5427C23.4832 10.5427 23.2383 10.7877 23.2383 11.0914C23.2383 11.1643 23.2526 11.2347 23.2787 11.2985C22.962 12.0935 22.5176 12.8349 21.956 13.4904C22.3 13.3249 22.704 13.162 23.1783 13.0278C23.465 12.5834 23.7074 12.113 23.9081 11.6256C24.1517 11.5696 24.3342 11.352 24.3342 11.0914ZM22.6115 9.7348C22.6115 9.43248 22.3665 9.18749 22.0628 9.18749C21.7605 9.18749 21.5155 9.43248 21.5155 9.7348C21.5155 9.79605 21.526 9.85469 21.5442 9.90942C21.4869 9.99021 21.4191 10.0632 21.3409 10.1283C21.2002 10.2443 21.0386 10.3251 20.8653 10.3642C20.9226 10.1557 20.9695 9.9433 21.0138 9.72959C21.2054 9.64489 21.3396 9.45202 21.3396 9.22919C21.3396 8.92687 21.0946 8.68188 20.791 8.68188C20.4887 8.68188 20.2437 8.92687 20.2437 9.22919C20.2437 9.34256 20.2776 9.44551 20.3362 9.53282C20.1225 10.6274 19.7146 11.6686 19.1243 12.6212V9.34517C19.239 9.24483 19.3119 9.09757 19.3119 8.93338C19.3119 8.62975 19.067 8.38477 18.7633 8.38477C18.461 8.38477 18.216 8.62975 18.216 8.93338C18.216 9.10539 18.2955 9.25916 18.4193 9.3595V14.0025C17.7795 13.5634 17.1018 13.1998 16.3943 12.9157C16.3916 12.6356 16.3512 12.3632 16.277 12.1013C17.1787 11.5514 17.7143 10.5506 17.683 9.50285C17.7508 9.41163 17.7912 9.29956 17.7912 9.17706C17.7912 8.87344 17.5462 8.62845 17.2439 8.62845C16.9403 8.62845 16.6953 8.87344 16.6953 9.17706C16.6953 9.38556 16.8113 9.5654 16.9807 9.65792C16.9598 10.3681 16.5988 11.034 16.0085 11.438C15.7935 11.0418 15.4951 10.6965 15.1367 10.4229C15.1237 10.131 14.8852 9.89899 14.5907 9.89899C14.2871 9.89899 14.0421 10.144 14.0421 10.4476C14.0421 10.7499 14.2871 10.9949 14.5907 10.9949C14.6324 10.9949 14.6715 10.991 14.7093 10.9819C15.2345 11.3806 15.5915 11.9827 15.6723 12.6564C14.9009 12.4114 14.0995 12.2563 13.2759 12.1925C13.1794 12.0335 13.0061 11.9254 12.8068 11.9254C12.5031 11.9254 12.2581 12.1703 12.2581 12.4727C12.2581 12.7763 12.5031 13.0213 12.8068 13.0213C12.941 13.0213 13.0648 12.9718 13.1599 12.891C13.3515 12.904 13.5417 12.9222 13.7294 12.9457C13.4153 13.3028 12.9996 13.5451 12.5474 13.6481C12.4471 13.5295 12.2972 13.4539 12.1291 13.4539C11.8255 13.4539 11.5805 13.6989 11.5805 14.0012C11.5805 14.3036 11.8255 14.5498 12.1291 14.5498C12.2907 14.5498 12.4354 14.4782 12.5357 14.3674C13.3254 14.2345 14.0512 13.7823 14.5099 13.0773C15.5133 13.2884 16.4724 13.6559 17.3638 14.1693C16.9702 14.2684 16.5624 14.3205 16.148 14.3205V15.0242C16.8334 15.0242 17.5006 14.903 18.1365 14.6645C18.2317 14.7323 18.3255 14.8 18.418 14.8704V16.6778C18.7581 16.2648 19.0917 15.8438 19.4553 15.436C19.3458 15.4907 19.2351 15.5428 19.1217 15.591V13.8566C19.7759 13.0096 20.2828 12.0804 20.6346 11.0966C21.0568 11.0914 21.4608 10.9441 21.7905 10.6704C21.9286 10.5545 22.0485 10.4215 22.1449 10.2769C22.4108 10.2339 22.6115 10.0085 22.6115 9.7348ZM21.2171 12.6564C21.2171 12.3775 20.993 12.1534 20.7141 12.1534C20.4352 12.1534 20.2111 12.3775 20.2111 12.6564C20.2111 12.7789 20.2541 12.891 20.3271 12.9783C20.3401 13.4578 20.4131 13.9296 20.5434 14.3856C20.7337 14.2319 20.9369 14.082 21.1559 13.9413C21.0881 13.6481 21.0477 13.3497 21.0334 13.046C21.1454 12.9535 21.2171 12.8128 21.2171 12.6564ZM16.6875 15.7487C16.4086 15.7487 16.1831 15.9729 16.1831 16.2517C16.1831 16.5306 16.4086 16.7547 16.6875 16.7547C16.7656 16.7547 16.8399 16.7365 16.9064 16.7039C17.2517 16.8694 17.5762 17.0727 17.8733 17.3138C18.031 17.1378 18.1834 16.9606 18.3333 16.7795C17.9684 16.4824 17.5684 16.2348 17.1409 16.038C17.0615 15.8673 16.8881 15.7487 16.6875 15.7487ZM15.3609 17.1678C15.5316 17.044 15.671 16.8798 15.7701 16.6857C15.929 16.3664 15.9564 16.0054 15.843 15.6679L15.1758 15.8881C15.228 16.0484 15.2149 16.2191 15.1393 16.3703C15.0924 16.4641 15.0234 16.5436 14.9413 16.6023C14.523 15.8595 14.4474 14.9343 14.824 14.0977L14.1816 13.8097C13.6056 15.0972 13.8779 16.5514 14.7562 17.547C13.9183 17.2968 13.1469 16.829 12.5318 16.1722C12.5331 16.1579 12.5344 16.1436 12.5344 16.1292C12.5344 16.1279 12.5344 16.1279 12.5344 16.1279C12.5344 15.8673 12.352 15.6497 12.1083 15.5949C12.0692 15.5871 12.0288 15.5819 11.9871 15.5819C11.9715 15.5819 11.9558 15.5832 11.9402 15.5845C11.66 15.608 11.4385 15.8425 11.4385 16.1292C11.4385 16.4329 11.6848 16.6778 11.9871 16.6778C11.9897 16.6778 11.9949 16.6778 11.9975 16.6765C12.0105 16.6765 12.0249 16.6752 12.0366 16.6739C12.7116 17.3933 13.5665 17.9262 14.5373 18.2181C15.082 18.3823 15.6384 18.4644 16.191 18.4644C16.3434 18.4644 16.4972 18.4579 16.6497 18.4449C17.0328 18.1634 17.3664 17.8546 17.6752 17.5288C17.1866 17.6812 16.6848 17.7568 16.1884 17.7568C15.8678 17.6083 15.5915 17.4063 15.3609 17.1678Z" fill="white"/>
<path d="M24.5777 16.2932C24.9816 16.2932 25.383 16.2254 25.7648 16.0951C25.8495 16.1486 25.9499 16.1811 26.058 16.1811C26.3603 16.1811 26.6053 15.9362 26.6053 15.6338C26.6053 15.3302 26.3603 15.0852 26.058 15.0852C25.83 15.0852 25.6345 15.2246 25.5511 15.424C25.2631 15.5244 24.9608 15.5817 24.6532 15.5895C24.9034 15.2755 25.1328 14.9432 25.3387 14.5939C25.3765 14.5301 25.413 14.4636 25.4495 14.3972C25.4612 14.3959 25.4729 14.3946 25.4846 14.3933C25.7427 14.3476 25.9381 14.1235 25.9381 13.8538C25.9381 13.5514 25.6918 13.3064 25.3895 13.3064C25.327 13.3064 25.2644 13.3182 25.2071 13.339C25.1797 13.3481 25.151 13.3599 25.125 13.3755C24.9569 13.468 24.8409 13.6479 24.8409 13.8551C24.8409 13.885 24.8435 13.915 24.8487 13.9437C24.8513 13.9606 24.8565 13.9789 24.8604 13.9958C24.7901 14.1261 24.7171 14.2551 24.6389 14.3815C24.5125 13.8342 24.5725 13.2543 24.8122 12.7435H24.82C24.8604 12.7435 24.8995 12.7396 24.9373 12.7305C24.6128 12.7526 24.3079 12.7904 24.0212 12.8386C23.788 13.5749 23.8245 14.3815 24.1398 15.0995C23.5326 15.8801 22.778 16.5499 21.9037 17.0647C21.5596 17.1024 21.2221 17.1624 20.8872 17.2445C20.9446 17.1598 21.0149 17.0829 21.0957 17.0164C21.3303 16.821 21.6274 16.7284 21.931 16.7571L21.9949 16.0573C21.5049 16.0117 21.024 16.1603 20.6448 16.4769C20.3217 16.7454 20.1053 17.1064 20.0206 17.5103C19.7131 17.6237 19.4121 17.7553 19.1202 17.9052V16.3532C20.0102 16.0026 20.8325 15.5074 21.5609 14.8793C21.7786 14.693 21.9831 14.4962 22.1786 14.2916C22.4861 14.3646 22.7976 14.4024 23.1143 14.4024C23.2055 14.4024 23.298 14.3998 23.3918 14.3933L23.3436 13.6909C23.1325 13.7052 22.9214 13.7 22.7142 13.6739C22.8784 13.4654 23.0322 13.2504 23.1742 13.0276C22.6999 13.1605 22.2959 13.3247 21.9519 13.4902C21.729 13.7521 21.488 14.001 21.2273 14.2343C21.1987 14.1365 21.1726 14.0401 21.1504 13.9411C20.9328 14.0818 20.7282 14.2304 20.538 14.3854C20.5706 14.4949 20.6044 14.6044 20.6422 14.7112C20.2669 14.9888 19.8695 15.2312 19.4512 15.4358C19.0876 15.8436 18.754 16.2645 18.4139 16.6776V16.8496C18.3865 16.8262 18.3579 16.8027 18.3292 16.7806C18.1793 16.9604 18.0269 17.1389 17.8692 17.3149C17.9122 17.3474 17.9526 17.3826 17.993 17.4178C17.8848 17.4595 17.7767 17.4973 17.6685 17.5312C17.3597 17.8557 17.0261 18.1658 16.6429 18.4473C17.2476 18.3991 17.8444 18.2505 18.4139 18.0068V19.8247H15.6304V22.1012C15.2395 22.2394 14.958 22.6107 14.958 23.0473C14.958 23.6011 15.4076 24.0507 15.9627 24.0507C16.5165 24.0507 16.9661 23.6011 16.9661 23.0473C16.9661 22.6251 16.7029 22.2628 16.3341 22.1156V20.5271H18.4191V22.8075C18.0321 22.947 17.7545 23.317 17.7545 23.7523C17.7545 24.3061 18.2041 24.7557 18.7579 24.7557C19.313 24.7557 19.7626 24.3061 19.7626 23.7523C19.7626 23.3275 19.4968 22.9652 19.1241 22.8179V20.5271H21.2091V22.1156C20.839 22.2641 20.5758 22.6251 20.5758 23.0473C20.5758 23.6011 21.0253 24.0507 21.5805 24.0507C22.1343 24.0507 22.5839 23.6011 22.5839 23.0473C22.5839 22.6107 22.3024 22.2381 21.9128 22.1012V19.8247H19.1228V18.7079C21.0123 17.6133 23.2798 17.4426 25.2853 18.1567C25.3517 18.3847 25.5615 18.5502 25.8091 18.5502C26.1127 18.5502 26.3577 18.3052 26.3577 18.0016C26.3577 17.6993 26.1127 17.4543 25.8091 17.4543C25.7257 17.4543 25.6462 17.4725 25.5759 17.5064C24.8213 17.2288 24.0264 17.0647 23.2094 17.0256C23.5117 16.7884 23.7958 16.5317 24.0642 16.2593C24.2336 16.2802 24.4057 16.2932 24.5777 16.2932ZM16.6012 23.0447C16.6012 23.3978 16.3146 23.6845 15.9614 23.6845C15.6083 23.6845 15.3216 23.3965 15.3216 23.0447C15.3216 22.6915 15.6083 22.4049 15.9614 22.4049C16.3146 22.4049 16.6012 22.6928 16.6012 23.0447ZM19.3964 23.751C19.3964 24.1041 19.1098 24.3908 18.7566 24.3908C18.4035 24.3908 18.1168 24.1028 18.1168 23.751C18.1168 23.4278 18.3566 23.162 18.6667 23.1177H18.8452C19.1567 23.1607 19.3964 23.4278 19.3964 23.751ZM22.2177 23.0447C22.2177 23.3978 21.931 23.6845 21.5779 23.6845C21.2247 23.6845 20.938 23.3965 20.938 23.0447C20.938 22.6915 21.2247 22.4049 21.5779 22.4049C21.931 22.4049 22.2177 22.6928 22.2177 23.0447Z" fill="white"/>
<defs>
<linearGradient id="paint0_linear_3649_34384" x1="-12.45" y1="-6.75" x2="31.5" y2="37.2" gradientUnits="userSpaceOnUse">
<stop stop-color="#00783F"/>
<stop offset="1" stop-color="#C89211"/>
</linearGradient>
</defs>
</svg>
