<svg width="18" height="18" viewBox="0 0 18 18" fill="none" xmlns="http://www.w3.org/2000/svg">
<circle cx="9" cy="9" r="9" fill="url(#paint0_linear_421_45816)"/>
<path d="M7.47328 2.94727C7.47328 2.94727 2.49925 3.99302 2.91756 9.57169C3.33586 15.1504 10.2626 16.7773 13.4931 13.4302C13.4931 13.4302 7.89158 16.3356 4.98626 11.989C2.08095 7.64242 5.1257 3.76041 7.47328 2.94727Z" fill="white"/>
<path d="M13.1016 3.76685C15.8375 5.68765 16.3607 9.66022 14.3076 12.2788C12.2995 14.9314 8.32235 15.4376 5.76953 13.2803C8.35232 15.1698 12.1483 14.6662 14.0769 12.101C16.0675 9.56314 15.5899 5.79841 13.1016 3.76685Z" fill="white"/>
<path d="M3.32768 10.4129C2.45915 7.79622 3.78768 4.71498 6.16588 3.37212C6.95232 2.91602 7.83909 2.63976 8.72652 2.60132C7.8847 2.87954 7.10413 3.25874 6.41478 3.75784C4.2933 5.25774 3.17131 7.82749 3.32768 10.4129Z" fill="white"/>
<path d="M14.4436 7.88205C14.4925 9.98985 13.1424 12.026 11.1884 12.8215C8.12541 14.1383 4.50077 12.2058 3.89091 8.9265C3.21394 5.67456 5.81953 2.51188 9.1425 2.58094C8.10391 2.59398 7.07118 2.90998 6.21308 3.49769C3.48368 5.32402 3.09535 9.28095 5.43511 11.5894C8.77632 14.8837 14.3641 12.5609 14.4436 7.88205Z" fill="white"/>
<path d="M14.8753 6.9263C15.5034 8.89663 14.9639 11.1849 13.5442 12.6933C9.4921 16.9551 2.4422 13.6439 3.12309 7.80787C3.40717 5.43944 5.22111 3.36031 7.54002 2.80127C5.29344 3.47303 3.59091 5.50395 3.34918 7.83523C2.9843 11.1269 5.43026 14.0844 8.73564 14.328C12.7792 14.6141 15.8696 10.8422 14.8753 6.9263Z" fill="white"/>
<path d="M15.5839 8.43404C15.707 10.5034 14.6039 12.5454 12.8479 13.6348C11.3252 14.6024 9.36274 14.8135 7.66347 14.2121C4.02124 12.9298 2.47835 8.59693 4.52946 5.31632C5.61887 3.56036 7.66087 2.45662 9.73088 2.58107C7.7384 2.67945 5.87624 3.79362 4.89043 5.53329C2.98461 8.86277 4.8787 13.124 8.64212 13.9046C12.1469 14.6356 15.4118 11.9844 15.5839 8.43404Z" fill="white"/>
<path d="M14.3894 5.77687C15.3961 7.80193 15.039 10.3515 13.517 12.0253C10.1002 15.792 3.86735 13.5793 3.58979 8.5017C3.48358 6.53855 4.47526 4.57539 6.12501 3.50749C6.35762 3.35437 6.60196 3.2221 6.85216 3.10156C6.35501 3.3472 5.89045 3.6593 5.48388 4.0372C3.60477 5.75928 3.12392 8.6255 4.3482 10.8617C6.16476 14.2556 10.8736 14.8245 13.4505 11.9654C14.9661 10.3332 15.3498 7.78694 14.3894 5.77687Z" fill="white"/>
<path d="M13.0994 3.76685C15.026 5.20484 15.9109 7.78177 15.2743 10.102C13.8493 15.308 6.88934 16.2084 4.18601 11.5374C3.14156 9.73124 3.13635 7.39604 4.18341 5.59187C4.33001 5.33515 4.49746 5.09212 4.67599 4.85756C4.32284 5.32929 4.0329 5.84793 3.82961 6.40111C2.87768 8.94024 3.79768 11.8781 6.03449 13.4119C9.38743 15.7543 14.123 14.0276 15.1883 10.0792C15.8372 7.80001 14.9785 5.21201 13.0994 3.76685Z" fill="white"/>
<path d="M15.4593 8.89651C15.5701 12.8749 11.7813 16.0005 7.8895 15.1997C2.28346 14.0634 0.833089 6.76786 5.60252 3.59736C6.65153 2.91517 7.90188 2.55225 9.1431 2.58092C8.52412 2.59721 7.90774 2.6943 7.31808 2.88194C3.93322 3.95767 2.09647 7.64356 3.30186 10.9867C4.01532 13.0053 5.82991 14.5749 7.9325 14.9834C11.7924 15.7627 15.3896 12.8241 15.4593 8.89651Z" fill="white"/>
<path d="M14.1799 5.61461C15.2667 7.60838 15.008 10.1847 13.5459 11.923C11.3019 14.6902 6.92341 14.6798 4.70485 11.8859C2.86093 9.65168 3.04336 6.23815 5.12901 4.22482C5.52842 3.83193 5.98777 3.50355 6.48165 3.24097C5.99038 3.50746 5.53428 3.83975 5.13879 4.23525C3.08637 6.25509 2.90002 9.6367 4.74264 11.8553C6.94817 14.6094 11.2843 14.6361 13.5159 11.8989C14.9708 10.1821 15.2426 7.59796 14.1799 5.61461Z" fill="white"/>
<path d="M13.232 11.693C13.4044 11.693 13.5441 11.5533 13.5441 11.3809C13.5441 11.2086 13.4044 11.0688 13.232 11.0688C13.0597 11.0688 12.9199 11.2086 12.9199 11.3809C12.9199 11.5533 13.0597 11.693 13.232 11.693Z" fill="white"/>
<path d="M2.88339 5.86565C3.05575 5.86565 3.19549 5.72592 3.19549 5.55355C3.19549 5.38119 3.05575 5.24146 2.88339 5.24146C2.71102 5.24146 2.57129 5.38119 2.57129 5.55355C2.57129 5.72592 2.71102 5.86565 2.88339 5.86565Z" fill="white"/>
<path d="M7.02859 15.2598C7.21643 15.2598 7.36871 15.1075 7.36871 14.9197C7.36871 14.7319 7.21643 14.5796 7.02859 14.5796C6.84075 14.5796 6.68848 14.7319 6.68848 14.9197C6.68848 15.1075 6.84075 15.2598 7.02859 15.2598Z" fill="white"/>
<path d="M12.4113 5.82259C12.2594 5.82259 12.137 5.94508 12.137 6.0969C12.137 6.10602 12.1376 6.11579 12.1383 6.12426C12.0861 6.21809 12.0438 6.31647 12.0119 6.41812C12.1545 6.39401 12.307 6.37511 12.4699 6.36404C12.5924 6.33798 12.6843 6.22786 12.6843 6.0969C12.6843 5.94508 12.5618 5.82259 12.4113 5.82259ZM12.1676 5.54568C12.1676 5.39386 12.0451 5.27137 11.8933 5.27137C11.7421 5.27137 11.6196 5.39386 11.6196 5.54568C11.6196 5.58216 11.6268 5.61735 11.6398 5.64927C11.4815 6.04673 11.2593 6.41747 10.9785 6.7452C11.1505 6.66245 11.3525 6.58101 11.5896 6.5139C11.733 6.29171 11.8542 6.0565 11.9545 5.81282C12.0764 5.7848 12.1676 5.67599 12.1676 5.54568ZM11.3062 4.8674C11.3062 4.71624 11.1837 4.59374 11.0319 4.59374C10.8807 4.59374 10.7583 4.71624 10.7583 4.8674C10.7583 4.89802 10.7635 4.92734 10.7726 4.95471C10.7439 4.99511 10.71 5.03159 10.6709 5.06417C10.6006 5.12216 10.5198 5.16256 10.4331 5.1821C10.4618 5.07786 10.4852 4.97165 10.5074 4.86479C10.6032 4.82244 10.6703 4.72601 10.6703 4.61459C10.6703 4.46343 10.5478 4.34094 10.396 4.34094C10.2448 4.34094 10.1223 4.46343 10.1223 4.61459C10.1223 4.67128 10.1393 4.72275 10.1686 4.76641C10.0617 5.31372 9.85779 5.83432 9.56264 6.31061V4.67258C9.61997 4.62241 9.65646 4.54879 9.65646 4.46669C9.65646 4.31488 9.53397 4.19238 9.38215 4.19238C9.23099 4.19238 9.1085 4.31488 9.1085 4.46669C9.1085 4.5527 9.14824 4.62958 9.21014 4.67975V7.00127C8.89022 6.78169 8.55141 6.5999 8.19761 6.45786C8.19631 6.31778 8.17611 6.1816 8.13897 6.05064C8.58985 5.77568 8.85765 5.27528 8.84201 4.75142C8.87589 4.70581 8.89609 4.64978 8.89609 4.58853C8.89609 4.43672 8.7736 4.31422 8.62243 4.31422C8.47062 4.31422 8.34813 4.43672 8.34813 4.58853C8.34813 4.69278 8.40611 4.7827 8.49082 4.82896C8.48039 5.18406 8.29991 5.51701 8.00475 5.71899C7.89724 5.52092 7.74804 5.34825 7.56886 5.21143C7.56234 5.06548 7.44311 4.9495 7.29585 4.9495C7.14404 4.9495 7.02155 5.07199 7.02155 5.2238C7.02155 5.37497 7.14404 5.49746 7.29585 5.49746C7.3167 5.49746 7.33625 5.49551 7.35515 5.49095C7.61773 5.69032 7.79625 5.99134 7.83665 6.3282C7.45093 6.20571 7.05022 6.12817 6.63843 6.09625C6.59021 6.01676 6.50355 5.96268 6.40387 5.96268C6.25205 5.96268 6.12956 6.08517 6.12956 6.23633C6.12956 6.38815 6.25205 6.51064 6.40387 6.51064C6.47098 6.51064 6.53288 6.48588 6.58044 6.44548C6.67622 6.452 6.77135 6.46112 6.86517 6.47285C6.70815 6.65138 6.5003 6.77257 6.27421 6.82404C6.22404 6.76475 6.14911 6.72696 6.06505 6.72696C5.91324 6.72696 5.79075 6.84945 5.79075 7.00061C5.79075 7.15178 5.91324 7.27492 6.06505 7.27492C6.14585 7.27492 6.21817 7.23909 6.26834 7.1837C6.66319 7.11724 7.02611 6.89115 7.25546 6.53866C7.75716 6.64421 8.23671 6.82795 8.68238 7.08466C8.48561 7.13418 8.28167 7.16025 8.07447 7.16025V7.51209C8.41719 7.51209 8.75079 7.45149 9.06875 7.33226C9.11632 7.36614 9.16323 7.40002 9.20949 7.43521V8.33892C9.37955 8.13238 9.54635 7.92192 9.72813 7.71798C9.6734 7.74535 9.61802 7.77141 9.56133 7.79552V6.92829C9.88842 6.50478 10.1419 6.04021 10.3178 5.54828C10.5289 5.54568 10.7309 5.47205 10.8957 5.33522C10.9648 5.27723 11.0247 5.21077 11.073 5.13845C11.2059 5.11695 11.3062 5.00423 11.3062 4.8674ZM10.609 6.3282C10.609 6.18877 10.497 6.0767 10.3575 6.0767C10.2181 6.0767 10.106 6.18877 10.106 6.3282C10.106 6.38945 10.1275 6.44548 10.164 6.48914C10.1705 6.72891 10.207 6.96478 10.2722 7.19282C10.3673 7.11594 10.469 7.04101 10.5784 6.97064C10.5445 6.82404 10.5243 6.67483 10.5172 6.52302C10.5732 6.47676 10.609 6.40639 10.609 6.3282ZM8.34422 7.87436C8.20478 7.87436 8.09206 7.98643 8.09206 8.12586C8.09206 8.26529 8.20478 8.37736 8.34422 8.37736C8.38331 8.37736 8.42045 8.36824 8.45368 8.35195C8.62634 8.4347 8.78858 8.53634 8.93714 8.65688C9.01598 8.56892 9.09221 8.48031 9.16714 8.38974C8.9847 8.24119 8.78467 8.11739 8.57096 8.019C8.53121 7.93365 8.44456 7.87436 8.34422 7.87436ZM7.68093 8.58391C7.76628 8.52201 7.836 8.43991 7.88552 8.34283C7.96501 8.1832 7.97869 8.00272 7.922 7.83396L7.5884 7.94407C7.61447 8.02422 7.60795 8.10957 7.57016 8.18515C7.54671 8.23207 7.51217 8.27181 7.47112 8.30113C7.26197 7.92974 7.22418 7.46713 7.41248 7.04883L7.09126 6.90483C6.80327 7.54858 6.93945 8.27572 7.3786 8.77351C6.95965 8.64841 6.57392 8.4145 6.26639 8.08612C6.26704 8.07895 6.26769 8.07178 6.26769 8.06461C6.26769 8.06396 6.26769 8.06396 6.26769 8.06396C6.26769 7.93365 6.17647 7.82484 6.05463 7.79747C6.03508 7.79356 6.01488 7.79096 5.99403 7.79096C5.98622 7.79096 5.9784 7.79161 5.97058 7.79226C5.83049 7.80399 5.71973 7.92127 5.71973 8.06461C5.71973 8.21643 5.84287 8.33892 5.99403 8.33892C5.99534 8.33892 5.99794 8.33892 5.99925 8.33827C6.00576 8.33827 6.01293 8.33762 6.01879 8.33697C6.3563 8.69663 6.78373 8.96312 7.26914 9.10907C7.54149 9.19116 7.81971 9.23221 8.09597 9.23221C8.1722 9.23221 8.24909 9.22895 8.32532 9.22244C8.51688 9.0817 8.68368 8.92728 8.8381 8.76439C8.59376 8.84062 8.34291 8.87841 8.09467 8.87841C7.93438 8.80414 7.79625 8.70314 7.68093 8.58391Z" fill="white"/>
<path d="M12.2893 8.1466C12.4913 8.1466 12.692 8.11272 12.8829 8.04757C12.9252 8.07428 12.9754 8.09057 13.0295 8.09057C13.1807 8.09057 13.3031 7.96808 13.3031 7.81691C13.3031 7.6651 13.1807 7.54261 13.0295 7.54261C12.9155 7.54261 12.8177 7.61232 12.776 7.71201C12.632 7.76218 12.4809 7.79085 12.3271 7.79476C12.4522 7.63773 12.5669 7.47159 12.6698 7.29697C12.6887 7.26504 12.707 7.23181 12.7252 7.19858C12.7311 7.19793 12.7369 7.19728 12.7428 7.19663C12.8718 7.17382 12.9695 7.06175 12.9695 6.92688C12.9695 6.77572 12.8464 6.65322 12.6952 6.65322C12.664 6.65322 12.6327 6.65909 12.604 6.66951C12.5903 6.67407 12.576 6.67994 12.563 6.68776C12.4789 6.73402 12.4209 6.82393 12.4209 6.92753C12.4209 6.94252 12.4222 6.9575 12.4248 6.97184C12.4261 6.98031 12.4288 6.98943 12.4307 6.9979C12.3955 7.06306 12.359 7.12756 12.3199 7.19076C12.2567 6.91711 12.2867 6.62716 12.4066 6.37175H12.4105C12.4307 6.37175 12.4503 6.3698 12.4692 6.36523C12.3069 6.37631 12.1544 6.39521 12.0111 6.41931C11.8945 6.78745 11.9127 7.19076 12.0704 7.54977C11.7668 7.94006 11.3895 8.27496 10.9523 8.53233C10.7803 8.55122 10.6115 8.5812 10.4441 8.62224C10.4728 8.57989 10.508 8.54145 10.5483 8.50822C10.6656 8.41049 10.8142 8.36422 10.966 8.37856L10.9979 8.02867C10.7529 8.00587 10.5125 8.08014 10.3229 8.23847C10.1613 8.3727 10.0532 8.55318 10.0108 8.75516C9.85704 8.81185 9.70653 8.87766 9.56058 8.95259V8.17658C10.0056 8.00131 10.4167 7.75371 10.781 7.43966C10.8898 7.34649 10.9921 7.2481 11.0898 7.14581C11.2436 7.18229 11.3993 7.20119 11.5576 7.20119C11.6032 7.20119 11.6495 7.19988 11.6964 7.19663L11.6723 6.84544C11.5667 6.8526 11.4612 6.85 11.3576 6.83696C11.4397 6.73272 11.5166 6.62521 11.5876 6.51379C11.3504 6.58025 11.1484 6.66235 10.9764 6.74509C10.865 6.87606 10.7445 7.00051 10.6142 7.11714C10.5998 7.06827 10.5868 7.02005 10.5757 6.97053C10.4669 7.0409 10.3646 7.11518 10.2695 7.19272C10.2858 7.24745 10.3027 7.30218 10.3216 7.35561C10.134 7.49439 9.93523 7.61558 9.72608 7.71788C9.54429 7.92181 9.37749 8.13227 9.20743 8.33881V8.42482C9.19375 8.41309 9.17942 8.40136 9.16508 8.39029C9.09015 8.4802 9.01392 8.56947 8.93508 8.65743C8.95658 8.67372 8.97678 8.69131 8.99698 8.7089C8.9429 8.72975 8.88882 8.74865 8.83474 8.76559C8.68032 8.92783 8.51352 9.0829 8.32196 9.22363C8.62429 9.19953 8.9227 9.12525 9.20743 9.00341V9.91233H7.8157V11.0506C7.62023 11.1197 7.47949 11.3054 7.47949 11.5236C7.47949 11.8006 7.70428 12.0253 7.98185 12.0253C8.25876 12.0253 8.48355 11.8006 8.48355 11.5236C8.48355 11.3125 8.35193 11.1314 8.16754 11.0578V10.2635H9.21004V11.4038C9.01653 11.4735 8.87774 11.6585 8.87774 11.8761C8.87774 12.1531 9.10253 12.3778 9.37945 12.3778C9.65701 12.3778 9.8818 12.1531 9.8818 11.8761C9.8818 11.6637 9.74888 11.4826 9.56253 11.409V10.2635H10.605V11.0578C10.42 11.1321 10.2884 11.3125 10.2884 11.5236C10.2884 11.8006 10.5132 12.0253 10.7907 12.0253C11.0676 12.0253 11.2924 11.8006 11.2924 11.5236C11.2924 11.3054 11.1517 11.119 10.9569 11.0506V9.91233H9.56188V9.35395C10.5066 8.80664 11.6404 8.72128 12.6431 9.07834C12.6763 9.19236 12.7812 9.27511 12.905 9.27511C13.0569 9.27511 13.1794 9.15261 13.1794 9.0008C13.1794 8.84964 13.0569 8.72714 12.905 8.72714C12.8633 8.72714 12.8236 8.73627 12.7884 8.75321C12.4112 8.61442 12.0137 8.53233 11.6052 8.51278C11.7563 8.3942 11.8984 8.26584 12.0326 8.12966C12.1173 8.14009 12.2033 8.1466 12.2893 8.1466ZM8.30111 11.5223C8.30111 11.6989 8.15777 11.8423 7.98119 11.8423C7.80462 11.8423 7.66128 11.6983 7.66128 11.5223C7.66128 11.3458 7.80462 11.2024 7.98119 11.2024C8.15777 11.2024 8.30111 11.3464 8.30111 11.5223ZM9.69871 11.8755C9.69871 12.0521 9.55537 12.1954 9.37879 12.1954C9.20222 12.1954 9.05888 12.0514 9.05888 11.8755C9.05888 11.7139 9.17876 11.581 9.33384 11.5588H9.4231C9.57882 11.5803 9.69871 11.7139 9.69871 11.8755ZM11.1093 11.5223C11.1093 11.6989 10.966 11.8423 10.7894 11.8423C10.6129 11.8423 10.4695 11.6983 10.4695 11.5223C10.4695 11.3458 10.6129 11.2024 10.7894 11.2024C10.966 11.2024 11.1093 11.3464 11.1093 11.5223Z" fill="white"/>
<defs>
<linearGradient id="paint0_linear_421_45816" x1="-6.225" y1="-3.375" x2="15.75" y2="18.6" gradientUnits="userSpaceOnUse">
<stop stop-color="#00783F"/>
<stop offset="1" stop-color="#C89211"/>
</linearGradient>
</defs>
</svg>
