<svg width="54" height="54" viewBox="0 0 54 54" fill="none" xmlns="http://www.w3.org/2000/svg">
<path d="M53.1921 33.5314C49.5857 47.9959 34.9339 56.7986 20.4661 53.1917C6.00443 49.5856 -2.79933 34.9346 0.808702 20.4713C4.41357 6.00531 19.0653 -2.79811 33.5286 0.807932C47.9954 4.41398 56.7986 19.0666 53.1917 33.5317L53.192 33.5314H53.1921Z" fill="#F3BA2F"/>
<path fill-rule="evenodd" clip-rule="evenodd" d="M27.0013 17.136L20.0091 24.1275L20.0092 24.1272L15.9409 20.0592L27.0013 9L38.0654 20.0625L33.9969 24.1305L27.0013 17.136ZM13.0686 22.9314L9 27.0001L13.0683 31.0674L17.1369 26.9992L13.0686 22.9314ZM20.0096 29.8735L27.0018 36.8645L33.9973 29.8702L38.0679 33.936L38.0659 33.9382L27.0018 45.0005L15.9414 33.9413L15.9356 33.9356L20.0096 29.8735ZM40.9345 22.9335L36.8659 27.0016L40.9344 31.0695L45.0028 27.0013L40.9345 22.9335Z" fill="white"/>
<path d="M31.128 26.998H31.1297L27.0016 22.8701L23.9504 25.9202L23.5998 26.2708L22.8769 26.9938L22.8711 26.9995L22.8769 27.0054L27.0016 31.1302L31.13 27.0023L31.132 27L31.1283 26.998" fill="white"/>
</svg>
