<svg width="24" height="24" viewBox="0 0 24 24" fill="none" xmlns="http://www.w3.org/2000/svg">
<path fill-rule="evenodd" clip-rule="evenodd" d="M12 24C5.4 24 0 18.6001 0 11.9402C0.06 5.34038 5.4 -0.0595036 12.06 0.000495204C18.66 0.060494 24 5.40038 24 12.1202C23.94 18.6601 18.6 24 12 24Z" fill="#EDF0F4"/>
<path fill-rule="evenodd" clip-rule="evenodd" d="M7.48548 7.1875C7.26746 6.05 8.13956 5 9.27329 5C10.2762 5 11.1047 5.83125 11.1047 6.8375V9.1125C11.3663 9.1125 11.628 9.06875 11.8896 9.06875C12.1512 9.06875 12.3692 9.06875 12.6309 9.1125V6.8375C12.6309 5.83125 13.4594 5 14.4623 5C15.596 5 16.4681 6.05 16.2937 7.1875L15.814 9.85625C17.5146 10.6 18.8228 11.9125 18.8228 13.5312V14.5375C18.8228 15.8938 17.9507 17.0312 16.6861 17.775C15.4216 18.5625 13.7646 19 11.8896 19C10.0146 19 8.35758 18.5625 7.09304 17.775C5.8721 17.0312 5 15.8938 5 14.5375V13.5312C5 11.9125 6.26455 10.6 7.96514 9.85625L7.48548 7.1875ZM15.16 10.2063L15.7268 7.05625C15.8576 6.26875 15.2908 5.525 14.4623 5.525C13.7646 5.525 13.1977 6.09375 13.1977 6.79375V9.68125C13.0233 9.6375 12.8053 9.6375 12.6309 9.6375C12.3692 9.6375 12.1512 9.59375 11.8896 9.59375C11.628 9.59375 11.3663 9.59375 11.1047 9.6375C10.9303 9.6375 10.7123 9.68125 10.5378 9.68125V6.8375C10.5378 6.1375 9.97097 5.56875 9.27329 5.56875C8.4884 5.56875 7.87793 6.3125 8.05235 7.1L8.61922 10.25C6.78781 10.95 5.56687 12.175 5.56687 13.575V14.5813C5.56687 16.725 8.40119 18.475 11.8896 18.475C15.378 18.475 18.2123 16.725 18.2123 14.5813V13.575C18.2559 12.1312 17.035 10.9062 15.16 10.2063Z" fill="#633001"/>
<path d="M18.2469 14.5248C18.2469 16.6957 15.3968 18.4679 11.8891 18.4679C8.38131 18.4679 5.53125 16.6957 5.53125 14.5248V13.5059H18.2907V14.5248H18.2469Z" fill="#FEDC90"/>
<path fill-rule="evenodd" clip-rule="evenodd" d="M7.99515 7.05908C7.81916 6.27334 8.43513 5.53125 9.2271 5.53125C9.93108 5.53125 10.5031 6.09873 10.5031 6.79717V9.67822C10.943 9.63456 11.383 9.59091 11.867 9.59091C12.307 9.59091 12.747 9.63456 13.1869 9.67822V6.79717C13.1869 6.09873 13.7589 5.53125 14.4629 5.53125C15.2549 5.53125 15.8708 6.27334 15.7388 7.05908L15.1669 10.202C17.0148 10.9005 18.2907 12.1227 18.2907 13.5196C18.2907 15.6586 15.4309 17.4047 11.911 17.4047C8.39114 17.4047 5.53125 15.6586 5.53125 13.5196C5.53125 12.1227 6.7632 10.9005 8.61113 10.202L7.99515 7.05908Z" fill="#D1884F"/>
<path d="M10.1384 13.3289C10.1384 13.9049 9.8283 14.3922 9.42956 14.3922C9.03083 14.3922 8.7207 13.9049 8.7207 13.3289C8.7207 12.753 9.03083 12.2656 9.42956 12.2656C9.8283 12.2656 10.1384 12.753 10.1384 13.3289Z" fill="#633001"/>
<path d="M15.1013 13.3289C15.1013 13.9049 14.7912 14.3922 14.3925 14.3922C13.9937 14.3922 13.6836 13.9049 13.6836 13.3289C13.6836 12.753 13.9937 12.2656 14.3925 12.2656C14.7912 12.2656 15.1013 12.753 15.1013 13.3289Z" fill="#633001"/>
</svg>
