<svg width="54" height="54" viewBox="0 0 54 54" fill="none" xmlns="http://www.w3.org/2000/svg">
<g clip-path="url(#clip0_3694_26316)">
<path d="M26.9995 53.9991C41.911 53.9991 53.9991 41.911 53.9991 26.9995C53.9991 12.0881 41.911 0 26.9995 0C12.0881 0 0 12.0881 0 26.9995C0 41.911 12.0881 53.9991 26.9995 53.9991Z" fill="url(#paint0_linear_3694_26316)"/>
<path fill-rule="evenodd" clip-rule="evenodd" d="M26.0214 9.74021C24.4538 9.92089 22.9962 10.6362 21.8941 11.7656C21.0667 12.5849 20.2829 13.426 19.4445 14.2535C19.0249 14.6841 18.6007 15.1028 18.1765 15.5279C17.7523 15.953 17.2844 16.4045 16.8438 16.8506C16.4032 17.2966 16.0373 17.6881 15.6294 18.1023C14.9922 18.7395 14.355 19.3767 13.7178 20.0203C13.229 20.5255 12.7511 21.0471 12.2677 21.5514C11.9828 21.8527 11.676 22.1322 11.4075 22.449C10.2992 23.8011 9.69353 25.4953 9.69336 27.2435C9.69336 27.3464 9.69336 27.452 9.69973 27.5539C9.72239 28.5578 9.98589 29.5415 10.468 30.4223C10.7425 30.9546 11.0604 31.4633 11.4184 31.9434C11.6551 32.2766 11.8271 32.2711 12.1384 32.0135C12.1979 31.964 12.2536 31.9102 12.305 31.8524C12.6118 31.5292 12.9122 31.207 13.2244 30.8847C13.665 30.4223 14.1165 29.9608 14.5571 29.4929C14.9977 29.025 15.4756 28.5098 15.938 28.0264C16.1583 27.7897 16.3932 27.5712 16.6153 27.3382C17.0877 26.8384 17.5502 26.3232 18.0226 25.8289C18.4951 25.3346 18.9739 24.8722 19.4363 24.3888C19.8988 23.9054 20.4677 23.3137 20.9884 22.7767C21.5091 22.2396 21.9506 21.7881 22.4339 21.2938C23.063 20.6429 23.6756 19.9766 24.2982 19.3266C24.6851 18.9288 25.0829 18.5474 25.4698 18.1551C26.0069 17.618 26.5066 17.0809 27.0337 16.5438C27.5608 16.0067 27.9522 15.6463 28.4037 15.1838C29.4129 14.1643 30.4206 13.1387 31.4268 12.107C31.4918 12.043 31.5526 11.9749 31.6089 11.9031C31.8565 11.5909 31.8774 11.5217 31.5715 11.3014C31.1045 10.9334 30.6045 10.6095 30.0777 10.3337C29.1468 9.89835 28.1315 9.67274 27.1038 9.67285H27.0528C26.7095 9.67292 26.3666 9.69451 26.026 9.73748L26.0205 9.73202L26.0214 9.74021ZM34.9142 16.3545H34.8495C34.4086 16.3546 33.973 16.4509 33.573 16.6366C33.1731 16.8222 32.8184 17.0928 32.5337 17.4295C32.4828 17.486 32.429 17.5397 32.3726 17.5907L30.7286 19.2028C30.1915 19.7408 29.6108 20.3261 29.0464 20.8905C28.5794 21.3575 28.1115 21.8145 27.65 22.2824C27.1884 22.7503 26.6932 23.271 26.1935 23.7598C25.6937 24.2486 25.1621 24.7611 24.646 25.2645L22.8135 27.1124L19.4072 30.5197C17.9022 32.0308 16.3992 33.5389 14.8985 35.0439C14.609 35.3288 14.6035 35.3662 14.8985 35.672C15.6185 36.4003 16.3495 37.123 17.0477 37.8568C17.4797 38.3146 18.0498 38.6184 18.6708 38.7215C19.2566 38.8394 19.8619 38.8191 20.4386 38.6624C20.8706 38.5555 21.2694 38.3431 21.5992 38.0443L23.3834 36.3211C23.8021 35.9187 24.2272 35.5209 24.6405 35.1122C25.468 34.2929 26.2845 33.4682 27.112 32.6544C27.7838 31.9935 28.472 31.3381 29.1538 30.6772L31.9511 27.9508C32.8214 27.0961 33.6971 26.2367 34.5783 25.382C34.637 25.2946 34.7185 25.2251 34.814 25.1809C34.9095 25.1367 35.0153 25.1196 35.1198 25.1313C35.2244 25.143 35.3237 25.1832 35.407 25.2475C35.4903 25.3117 35.5544 25.3976 35.5923 25.4957C36.0402 26.1499 36.2798 26.9241 36.2796 27.7169C36.2795 27.8525 36.2725 27.988 36.2587 28.1229C36.1864 28.9221 35.8568 29.6763 35.3193 30.2721C34.6739 30.9658 33.9866 31.6212 33.3166 32.2875C32.8387 32.76 32.3499 33.2224 31.871 33.7003C31.2529 34.3129 30.6458 34.9365 30.0277 35.5491C29.9366 35.6511 29.8511 35.7585 29.7546 35.855L29.1474 36.484C28.6923 36.9392 28.2289 37.3816 27.782 37.8376C27.335 38.2937 26.8216 38.8271 26.3437 39.3251C26.3009 39.3733 26.2527 39.4052 26.2099 39.448C25.6719 39.9477 25.1776 40.4493 24.6669 40.9527C24.4257 41.1894 24.1945 41.4306 23.9578 41.6673C23.55 42.0815 23.1303 42.4866 22.738 42.9089C22.4967 43.1611 22.4967 43.3168 22.7817 43.5161C23.2495 43.8752 23.7474 44.1932 24.27 44.4665C25.5699 45.0543 27.0105 45.2592 28.4228 45.0573C29.8246 44.8909 31.1397 44.2917 32.1851 43.3432C32.9798 42.645 33.6898 41.8603 34.4308 41.1084C34.9679 40.5704 35.5059 39.996 36.0803 39.4425L37.6332 37.8786C38.1066 37.4007 38.5736 36.9219 39.0524 36.4494C39.5312 35.977 40.1266 35.4126 40.6636 34.8801C41.2007 34.3475 41.7387 33.8059 42.2758 33.2361C42.704 32.8 43.0996 32.333 43.4592 31.8387C44.1296 30.8258 44.5481 29.6672 44.6799 28.4597C44.7527 27.8599 44.7527 27.2535 44.6799 26.6537C44.5201 25.5864 44.1333 24.5657 43.5457 23.6606C43.123 23.0201 42.6174 22.4385 42.0418 21.931C40.5535 20.4536 39.0697 18.9652 37.6141 17.455C37.2968 17.1017 36.9088 16.8192 36.4751 16.6256C36.0415 16.4321 35.572 16.332 35.0971 16.3317H35.0771L34.916 16.3536L34.9142 16.3545Z" fill="white"/>
</g>
<defs>
<linearGradient id="paint0_linear_3694_26316" x1="3.67903" y1="11.3287" x2="47.0116" y2="40.9774" gradientUnits="userSpaceOnUse">
<stop stop-color="#FF3B3B"/>
<stop offset="1" stop-color="#FF9914"/>
</linearGradient>
<clipPath id="clip0_3694_26316">
<rect width="54" height="54" fill="white"/>
</clipPath>
</defs>
</svg>
