<svg width="36" height="36" viewBox="0 0 36 36" fill="none" xmlns="http://www.w3.org/2000/svg">
<g clip-path="url(#clip0_426_44893)">
<path d="M35.4574 22.3543C33.0534 31.9972 23.2866 37.8658 13.6426 35.4611C4.0025 33.0571 -1.86601 23.2897 0.539074 13.6476C2.94205 4.00354 12.7088 -1.86541 22.3499 0.538622C31.9933 2.94265 37.8615 12.7111 35.4572 22.3545L35.4573 22.3543H35.4574Z" fill="#50AF95"/>
<path fill-rule="evenodd" clip-rule="evenodd" d="M20.2774 20.0408C20.1501 20.0503 19.4925 20.0896 18.0257 20.0896C16.859 20.0896 16.0306 20.0546 15.74 20.0408C11.2312 19.8425 7.86583 19.0576 7.86583 18.1179C7.86583 17.1781 11.2312 16.3943 15.74 16.1928V19.2591C16.0349 19.2803 16.8791 19.3302 18.0458 19.3302C19.4459 19.3302 20.1469 19.2718 20.2732 19.2602V16.1949C24.7724 16.3954 28.1303 17.1803 28.1303 18.1179C28.1303 19.0555 24.7734 19.8403 20.2732 20.0397L20.2774 20.0408ZM20.2774 15.8778V13.1339H26.5564V8.94971H9.46102V13.1339H15.7389V15.8767C10.6362 16.1111 6.79883 17.1219 6.79883 18.3332C6.79883 19.5444 10.6362 20.5541 15.7389 20.7896V29.5823H20.2763V20.7864C25.3674 20.552 29.1984 19.5423 29.1984 18.3321C29.1984 17.1219 25.3706 16.1122 20.2763 15.8767L20.2774 15.8778Z" fill="white"/>
</g>
<defs>
<clipPath id="clip0_426_44893">
<rect width="36" height="36" fill="white"/>
</clipPath>
</defs>
</svg>
