<svg width="54" height="54" viewBox="0 0 54 54" fill="none" xmlns="http://www.w3.org/2000/svg">
<path d="M27 54C41.9114 54 54 41.9114 54 27C54 12.0886 41.9114 0 27 0C12.0886 0 0 12.0886 0 27C0 41.9114 12.0886 54 27 54Z" fill="url(#paint0_linear_3764_19098)"/>
<path fill-rule="evenodd" clip-rule="evenodd" d="M40.7783 25.3922H13.2223V25.3916C12.303 25.3889 11.5584 24.6443 11.5557 23.725C11.5584 22.8056 12.303 22.061 13.2223 22.0583H16.442L13.0063 12.9857C12.6832 12.125 13.1158 11.1649 13.9746 10.8367C14.8355 10.514 15.7954 10.9469 16.1236 11.8057L20.0061 22.0583H32.9532L36.8363 11.8057C37.1641 10.9466 38.1243 10.5137 38.9852 10.8367C39.844 11.1649 40.2767 12.125 39.9535 12.9857L36.5184 22.0583H40.7783C41.6976 22.061 42.4422 22.8056 42.4449 23.725C42.4425 24.6445 41.6978 25.3895 40.7783 25.3922ZM40.7776 28.5033H13.2223C12.3032 28.506 11.5587 29.2502 11.5557 30.1693C11.558 31.0889 12.3027 31.8339 13.2223 31.8366H20.1453L24.8366 44.2253C25.0948 44.9009 25.7581 45.334 26.4805 45.2985C27.203 45.334 27.8663 44.9009 28.1245 44.2253L32.8157 31.836H40.7783C41.6976 31.8333 42.4422 31.0887 42.4449 30.1693C42.4422 29.25 41.6976 28.5054 40.7783 28.5027L40.7776 28.5033ZM26.4799 39.1536L23.7087 31.8354H29.2511L26.4799 39.153V39.1536Z" fill="white"/>
<defs>
<linearGradient id="paint0_linear_3764_19098" x1="22.425" y1="65.0025" x2="64.4714" y2="31.5145" gradientUnits="userSpaceOnUse">
<stop stop-color="#F8B342"/>
<stop offset="1" stop-color="#F2C35E"/>
</linearGradient>
</defs>
</svg>
