<svg width="54" height="54" viewBox="0 0 54 54" fill="none" xmlns="http://www.w3.org/2000/svg">
<circle cx="27" cy="27" r="27" fill="url(#paint0_linear_3764_19147)"/>
<mask id="mask0_3764_19147" style="mask-type:alpha" maskUnits="userSpaceOnUse" x="0" y="0" width="54" height="54">
<circle cx="27" cy="27" r="27" fill="white"/>
</mask>
<g mask="url(#mask0_3764_19147)">
<path d="M38.4206 0H67.2026L67.2296 56.7L10.0977 56.349L38.4206 0Z" fill="url(#paint1_linear_3764_19147)"/>
</g>
<path fill-rule="evenodd" clip-rule="evenodd" d="M44.0996 14.8501L28.563 45.5265L28.5476 45.5576L28.5398 45.576C28.3116 46.1006 27.87 46.345 27.2575 46.35L27.2383 46.3501H27.2114C26.5827 46.3501 26.1315 46.1012 25.9031 45.56L25.9021 45.5576L25.8879 45.5291L10.3496 14.8773L18.0475 14.8773L18.1163 14.8776L18.1647 14.8781L18.1956 14.8786L18.2254 14.8793L18.2543 14.8802L18.2822 14.8813L18.3091 14.8825L18.3353 14.8839L18.348 14.8847L18.373 14.8865L18.3972 14.8886L18.4091 14.8897L18.4323 14.8921L18.4437 14.8934L18.4661 14.8962L18.4879 14.8993L18.5093 14.9027L18.5303 14.9064L18.551 14.9105C18.6192 14.9246 18.6823 14.9444 18.7489 14.972C18.9153 15.0411 19.0546 15.1536 19.1554 15.305C19.21 15.3872 19.2472 15.4685 19.2758 15.5579L19.2797 15.5703L27.2109 31.1466L35.1243 15.5801L35.1253 15.5772L35.128 15.5672C35.2068 15.2818 35.4128 15.0731 35.6842 14.9617L35.6968 14.9566C35.8895 14.8802 36.1129 14.8501 36.3898 14.8501H44.0996ZM12.6352 16.288L27.134 44.8891L27.1583 44.9381L27.1726 44.9388L27.1912 44.9393L27.2114 44.9394H27.2383L27.2585 44.9393L27.2771 44.9388L27.2913 44.9381L27.3142 44.8921L41.815 16.2608L36.3767 16.2609L36.3516 16.2612L36.3495 16.2612L27.2119 34.2357L18.0732 16.288L12.6352 16.288Z" fill="white"/>
<path d="M31.6414 14.8501C31.0426 14.8501 30.8521 14.9317 30.5799 15.4754L24.0203 28.3351L17.4606 15.4754C17.3245 14.986 16.9979 15.122 16.3991 15.122H10.8465C10.5744 15.122 10.3022 15.421 10.3566 15.6113L22.9315 40.2704C23.1221 40.7054 23.4759 40.9501 24.0203 40.9501H24.0475C24.5919 40.9501 24.9729 40.7326 25.1362 40.2704L37.7384 15.4754C37.82 15.2851 37.82 15.1492 37.7384 15.0404C37.6567 14.9317 37.4662 14.8501 37.2484 14.8501H31.6414Z" fill="white"/>
<defs>
<linearGradient id="paint0_linear_3764_19147" x1="-18.657" y1="11.286" x2="-18.657" y2="48.6" gradientUnits="userSpaceOnUse">
<stop stop-color="#5B62FE"/>
<stop offset="1" stop-color="#3831AB"/>
</linearGradient>
<linearGradient id="paint1_linear_3764_19147" x1="-3942.31" y1="8.3025" x2="-3942.31" y2="46.6884" gradientUnits="userSpaceOnUse">
<stop stop-color="#1F1B55" stop-opacity="0.98"/>
<stop offset="1" stop-color="#493ED1"/>
</linearGradient>
</defs>
</svg>
