<svg width="54" height="54" viewBox="0 0 54 54" fill="none" xmlns="http://www.w3.org/2000/svg">
<g clip-path="url(#clip0_421_45991)">
<path d="M27 54C41.9117 54 54 41.9117 54 27C54 12.0883 41.9117 0 27 0C12.0883 0 0 12.0883 0 27C0 41.9117 12.0883 54 27 54Z" fill="#D21E2B"/>
<path d="M27.2362 9.88031V5.0625L45.1676 15.4102L41.0214 17.82L27.2362 9.88031ZM41.2965 34.209V18.333L45.4832 15.9232V36.6187L41.2982 34.209H41.2965ZM27.2362 42.6617L41.0214 34.7237L45.1676 37.1317L27.2362 47.4795V42.6617ZM8.71425 37.1317L12.8993 34.7237L26.6439 42.6617V47.4795L8.71425 37.1317ZM8.4375 15.9232L12.5837 18.333V34.209L8.4375 36.6187V15.9232ZM8.71425 15.4102L26.6439 5.0625V9.88031L12.9009 17.82L8.71425 15.4102ZM26.9797 10.3342L13.1574 18.2756V34.2309L26.9797 42.2094L40.7632 34.2309V18.2756L26.9797 10.3359V10.3342ZM38.0784 24.5936L37.4861 25.6196L33.5374 23.409L28.4816 26.2507L33.5357 29.0942L37.4844 26.8836L38.0784 27.9096L34.7608 29.7658L38.0784 31.6221L37.4861 32.6497L34.1685 30.7935V34.506H32.9434V30.1219L27.8893 27.2784V32.9653L31.7992 35.1371L31.2069 36.1446L27.8893 34.2883V38.0008H26.6625V34.2883L23.3449 36.1446L22.7137 35.1186L26.6625 32.9451V27.2784L21.6067 30.1219V34.506H20.3428V30.7935L17.0657 32.6497L16.4329 31.6221L19.7505 29.7658L16.4329 27.9096L17.0657 26.8836L20.9756 29.0942L26.0702 26.2507L20.9739 23.4073L17.0657 25.6179L16.4329 24.5919L19.7505 22.7357L16.4329 20.8794L17.0657 19.8534L20.3428 21.7097V17.9769H21.6084V22.3611L26.6625 25.2045V19.5379L22.7526 17.3644L23.3449 16.3384L26.6625 18.1946V14.4821H27.8876V18.1946L31.2053 16.3384L31.7959 17.3644L27.8876 19.5379V25.2247L32.9417 22.3813V17.9769H34.1668V21.6894L37.4844 19.8332L38.0751 20.8609L34.7591 22.7171L38.0767 24.5919L38.0784 24.5936Z" fill="white"/>
</g>
<defs>
<clipPath id="clip0_421_45991">
<rect width="54" height="54" fill="white"/>
</clipPath>
</defs>
</svg>
