<svg width="12" height="12" viewBox="0 0 12 12" fill="none" xmlns="http://www.w3.org/2000/svg">
<path opacity="0.6" d="M6 0C4.81331 0 3.65328 0.351894 2.66658 1.01118C1.67989 1.67047 0.910851 2.60754 0.456725 3.7039C0.00259972 4.80025 -0.11622 6.00665 0.115291 7.17054C0.346802 8.33443 0.918247 9.40352 1.75736 10.2426C2.59648 11.0818 3.66557 11.6532 4.82946 11.8847C5.99335 12.1162 7.19975 11.9974 8.2961 11.5433C9.39246 11.0891 10.3295 10.3201 10.9888 9.33342C11.6481 8.34673 12 7.18669 12 6C11.9983 4.40923 11.3656 2.8841 10.2407 1.75926C9.1159 0.634414 7.59077 0.00172054 6 0ZM6 10C5.90111 10 5.80444 9.97067 5.72222 9.91573C5.63999 9.86079 5.57591 9.7827 5.53806 9.69134C5.50022 9.59998 5.49032 9.49944 5.50961 9.40245C5.5289 9.30546 5.57652 9.21637 5.64645 9.14644C5.71637 9.07652 5.80547 9.0289 5.90246 9.00961C5.99945 8.99031 6.09998 9.00021 6.19134 9.03806C6.28271 9.0759 6.3608 9.13999 6.41574 9.22221C6.47068 9.30444 6.5 9.40111 6.5 9.5C6.5 9.63261 6.44732 9.75978 6.35356 9.85355C6.25979 9.94732 6.13261 10 6 10ZM6.965 6.253C6.81745 6.34525 6.69679 6.47474 6.61516 6.62843C6.53353 6.78211 6.49382 6.95459 6.5 7.1285V7.5C6.5 7.63261 6.44732 7.75978 6.35356 7.85355C6.25979 7.94732 6.13261 8 6 8C5.86739 8 5.74022 7.94732 5.64645 7.85355C5.55268 7.75978 5.5 7.63261 5.5 7.5V7.1285C5.49261 6.77571 5.57979 6.42737 5.75246 6.11965C5.92514 5.81192 6.17704 5.55602 6.482 5.3785C6.66674 5.27675 6.81458 5.1192 6.90438 4.92837C6.99418 4.73754 7.02135 4.5232 6.982 4.316C6.94304 4.1186 6.84612 3.9373 6.70363 3.79524C6.56113 3.65319 6.37952 3.55684 6.182 3.5185C6.03786 3.49182 5.88962 3.49716 5.74777 3.53413C5.60592 3.5711 5.47394 3.63881 5.36116 3.73246C5.24838 3.8261 5.15758 3.9434 5.09516 4.07604C5.03275 4.20867 5.00027 4.35341 5 4.5C5 4.63261 4.94732 4.75978 4.85356 4.85355C4.75979 4.94732 4.63261 5 4.5 5C4.36739 5 4.24022 4.94732 4.14645 4.85355C4.05268 4.75978 4 4.63261 4 4.5C4.00013 4.14725 4.09354 3.80081 4.27078 3.49582C4.44801 3.19084 4.70276 2.93815 5.00918 2.76339C5.31559 2.58864 5.66278 2.49803 6.01551 2.50077C6.36825 2.5035 6.71399 2.59948 7.01766 2.77897C7.32132 2.95846 7.57212 3.21507 7.7446 3.52277C7.91708 3.83047 8.00512 4.17831 7.99977 4.53102C7.99442 4.88373 7.89589 5.22875 7.71416 5.53108C7.53243 5.83341 7.27397 6.0828 6.965 6.253Z" fill="#A69F9F"/>
</svg>
